<?xml version="1.0" encoding="UTF-8"?>
<svg xmlns="http://www.w3.org/2000/svg" xmlns:xlink="http://www.w3.org/1999/xlink" version="1.1" id="Layer_1" x="0px" y="0px" viewBox="0 0 24 24" style="enable-background:new 0 0 24 24;" xml:space="preserve">
<g>
	<path style="fill:#303C42;" d="M12,0C5.383,0,0,5.383,0,12c0,5.738,3.95,10.78,9.392,11.988c0.147,0.033,0.303-0.003,0.421-0.098   C9.931,23.795,10,23.652,10,23.5v-3c0-0.276-0.224-0.5-0.5-0.5h-1c-1.248,0-2.097-1.183-2.847-2.226   c-0.077-0.107-0.153-0.214-0.23-0.318c0.355,0.188,0.66,0.415,0.961,0.638c0.601,0.445,1.23,0.883,2.053,0.903   c0.063,0.006,0.648,0.067,1.1-0.33C9.749,18.479,10,18.126,10,17.5v-0.349c0-0.224-0.148-0.42-0.364-0.481   C6.863,15.885,5,13.807,5,11.5c0-1.2,0.493-2.345,1.425-3.312c0.144-0.149,0.181-0.37,0.094-0.558   C6.147,6.828,6.226,5.737,6.667,5.082C7.251,5.309,8.008,5.786,8.5,6.37c0.135,0.16,0.357,0.22,0.554,0.147   c1.875-0.688,4.018-0.688,5.893,0c0.199,0.074,0.42,0.013,0.554-0.147c0.492-0.584,1.249-1.061,1.832-1.289   c0.442,0.655,0.521,1.747,0.148,2.549c-0.087,0.188-0.05,0.409,0.094,0.558C18.507,9.155,19,10.3,19,11.5   c0,2.422-2.07,4.591-5.033,5.274c-0.151,0.035-0.278,0.138-0.342,0.279s-0.06,0.304,0.013,0.441C13.885,17.963,14,18.601,14,19.5v4   c0,0.152,0.069,0.295,0.187,0.39c0.09,0.072,0.2,0.11,0.313,0.11c0.036,0,0.072-0.004,0.108-0.012C20.05,22.78,24,17.738,24,12   C24,5.383,18.617,0,12,0z"/>
	<path style="fill:#5C6671;" d="M15,22.856V19.5c0-0.765-0.078-1.384-0.242-1.901C17.873,16.67,20,14.228,20,11.5   c0-1.364-0.512-2.66-1.484-3.766c0.429-1.243,0.165-2.761-0.662-3.587c-0.125-0.126-0.309-0.177-0.481-0.13   c-0.668,0.177-1.66,0.696-2.401,1.451c-1.905-0.621-4.036-0.621-5.941,0C8.288,4.712,7.296,4.193,6.628,4.017   C6.455,3.969,6.272,4.02,6.146,4.146C5.32,4.973,5.055,6.491,5.484,7.734C4.512,8.84,4,10.136,4,11.5c0,2.653,1.994,5.035,5,6.021   c-0.002,0.135-0.026,0.306-0.121,0.392C8.763,18.018,8.557,18.003,8.5,18c-0.562,0-0.984-0.313-1.52-0.71   C6.205,16.715,5.24,16,3.5,16C3.224,16,3,16.224,3,16.5S3.224,17,3.5,17c0.366,0,0.862,0.69,1.341,1.357   C5.687,19.535,6.74,21,8.5,21H9v1.856C4.398,21.526,1,16.972,1,12C1,5.935,5.935,1,12,1s11,4.935,11,11   C23,16.972,19.602,21.526,15,22.856z"/>
	<path style="opacity:0.2;fill:#FFFFFF;" d="M1.5,12.5c0-6.065,4.935-11,11-11c2.906,0,5.544,1.141,7.513,2.987   C18.004,2.347,15.16,1,12,1C5.935,1,1,5.935,1,12c0,3.213,1.424,6.245,3.67,8.352C2.716,18.279,1.5,15.467,1.5,12.5z"/>
	<linearGradient id="SVGID_1_" gradientUnits="userSpaceOnUse" x1="10.3444" y1="10.3822" x2="19.8319" y2="19.8697">
		<stop offset="0" style="stop-color:#000000;stop-opacity:0.1"/>
		<stop offset="1" style="stop-color:#000000;stop-opacity:0"/>
	</linearGradient>
	<path style="fill:url(#SVGID_1_);" d="M6.369,20.152L9,22.783V21H8.5C7.639,21,6.95,20.647,6.369,20.152z M5.473,15.253   l0.457,0.457c-0.158-0.15-0.31-0.303-0.45-0.464L5.473,15.253z M5.737,19.52l0.03,0.03c-0.008-0.009-0.016-0.018-0.024-0.028   L5.737,19.52z M8.175,17.955C8.28,17.979,8.386,18,8.5,18c0.057,0.003,0.263,0.018,0.379-0.086C8.974,17.827,8.998,17.657,9,17.521   c-1.118-0.367-2.094-0.928-2.881-1.622L8.175,17.955z M22.527,8.82l-4.674-4.674c0.827,0.827,1.091,2.345,0.662,3.587   C19.488,8.84,20,10.136,20,11.5c0,2.728-2.127,5.17-5.242,6.099C14.922,18.116,15,18.735,15,19.5v3.356   c4.602-1.33,8-5.885,8-10.856C23,10.894,22.832,9.828,22.527,8.82z"/>
	<linearGradient id="SVGID_2_" gradientUnits="userSpaceOnUse" x1="1.0743" y1="7.0373" x2="22.8646" y2="17.1983">
		<stop offset="0" style="stop-color:#FFFFFF;stop-opacity:0.2"/>
		<stop offset="1" style="stop-color:#FFFFFF;stop-opacity:0"/>
	</linearGradient>
	<path style="fill:url(#SVGID_2_);" d="M12,0C5.383,0,0,5.383,0,12c0,5.738,3.95,10.78,9.392,11.988   c0.147,0.033,0.303-0.003,0.421-0.098C9.931,23.795,10,23.652,10,23.5v-3c0-0.276-0.224-0.5-0.5-0.5h-1   c-1.248,0-2.097-1.183-2.847-2.226c-0.077-0.107-0.153-0.214-0.23-0.318c0.355,0.188,0.66,0.415,0.961,0.638   c0.601,0.445,1.23,0.883,2.053,0.903c0.063,0.006,0.648,0.067,1.1-0.33C9.749,18.479,10,18.126,10,17.5v-0.349   c0-0.224-0.148-0.42-0.364-0.481C6.863,15.885,5,13.807,5,11.5c0-1.2,0.493-2.345,1.425-3.312c0.144-0.149,0.181-0.37,0.094-0.558   C6.147,6.828,6.226,5.737,6.667,5.082C7.251,5.309,8.008,5.786,8.5,6.37c0.135,0.16,0.357,0.22,0.554,0.147   c1.875-0.688,4.018-0.688,5.893,0c0.199,0.074,0.42,0.013,0.554-0.147c0.492-0.584,1.249-1.061,1.832-1.289   c0.442,0.655,0.521,1.747,0.148,2.549c-0.087,0.188-0.05,0.409,0.094,0.558C18.507,9.155,19,10.3,19,11.5   c0,2.422-2.07,4.591-5.033,5.274c-0.151,0.035-0.278,0.138-0.342,0.279s-0.06,0.304,0.013,0.441C13.885,17.963,14,18.601,14,19.5v4   c0,0.152,0.069,0.295,0.187,0.39c0.09,0.072,0.2,0.11,0.313,0.11c0.036,0,0.072-0.004,0.108-0.012C20.05,22.78,24,17.738,24,12   C24,5.383,18.617,0,12,0z"/>
</g>
<g>
</g>
<g>
</g>
<g>
</g>
<g>
</g>
<g>
</g>
<g>
</g>
<g>
</g>
<g>
</g>
<g>
</g>
<g>
</g>
<g>
</g>
<g>
</g>
<g>
</g>
<g>
</g>
<g>
</g>

	<metadata>
		<rdf:RDF xmlns:rdf="http://www.w3.org/1999/02/22-rdf-syntax-ns#" xmlns:rdfs="http://www.w3.org/2000/01/rdf-schema#" xmlns:dc="http://purl.org/dc/elements/1.1/">
			<rdf:Description about="https://iconscout.com/legal#licenses" dc:title="social; media; social media; logo; github" dc:description="social; media; social media; logo; github" dc:publisher="Iconscout" dc:date="2017-03-22" dc:format="image/svg+xml" dc:language="en">
				<dc:creator>
					<rdf:Bag>
						<rdf:li>Alpár - Etele Méder</rdf:li>
					</rdf:Bag>
				</dc:creator>
			</rdf:Description>
		</rdf:RDF>
    </metadata></svg>
