<?xml version="1.0" encoding="utf-8"?>
<!-- Generator: Adobe Illustrator 19.0.0, SVG Export Plug-In . SVG Version: 6.00 Build 0)  -->
<svg version="1.1" xmlns="http://www.w3.org/2000/svg" xmlns:xlink="http://www.w3.org/1999/xlink" x="0px" y="0px"
	 viewBox="0 0 1600 1200" style="enable-background:new 0 0 1600 1200;" xml:space="preserve">
<style type="text/css">
	.st0{fill:#1E1C1A;}
	.st1{fill:#E2B97F;}
	.st2{fill:#E0AF90;}
	.st3{fill:#FF4F03;}
	.st4{fill:#E5D2CC;}
	.st5{stroke:#000000;stroke-width:1.5;stroke-miterlimit:10;}
	.st6{stroke:#000000;stroke-miterlimit:10;}
	.st7{fill:#EDCDBC;}
	.st8{fill:#E29A59;}
	.st9{fill:#DDCFC3;}
</style>
<g id="Layer_5">
	<path class="st0" d="M711.3,453.6c-21.4,8.6-42.2,16.9-61.8,37.6c-23.6,25-32.6,55.1-40.1,80.2c-6,20.1-8.9,37.3-10.3,49.1
		c4.4-0.9,25.1-4.9,42.8,7.9c6.3,4.6,10.4,10,13,14.2c2.1-19.3,4.3-38.6,6.4-58c1.8-2.1,3.6-4.3,5.4-6.4
		c11.6,20.1,18.6,38.1,23.1,51.6c7.9,24.1,11.1,44.8,13.3,59.9c1.2,8.3,2,15.2,2.5,20.1c59.3-1.3,102.7-0.6,136.2,0.9
		c16.1,0.7,35.7,1.8,49.1-10.8c13.8-12.9,21.5-40.6,25-53.4c3.4-12.4,4.5-20.6,10.9-23.4c7.8-3.4,18.5,3.3,26.9,10.2
		c0.1-0.5,0.2-1.1,0.3-2c1.5-9.2,6.5-42.5,2.8-72.5c-2-16.2-7.3-60.8-41.7-90.2c-13.1-11.2-25.6-16-38.4-20.9
		C803.1,420.1,731.8,445.4,711.3,453.6z"/>
	<path class="st1" d="M687.1,397.2c0.2,2.4,0.4,5.1,0.6,5.1c0.7,0-5.6-31.4,2.5-60.7c7.9-28.7,30.7-59.2,63.9-70.2
		c11.3-3.7,21.2-4.4,27.8-4.4c-6.4-10.1-5.1-12.6-4.4-13.3c2.8-3.1,13.9-1.4,19.6,5.1c3.4,3.9,3.9,8.4,6.8,8.6
		c1.9,0.1,2.9-1.6,5.4-4c5.4-5.1,13.7-9.1,20.8-7.8c2.6,0.5,5.7,1.8,5.7,3.2c-0.1,2.5-11.4,2-15.2,8.9c-1.2,2.2-1.3,4.4-1.2,5.8
		c3.8-1,9.9-2.1,17.1-0.7c15.3,3,26.7,15.5,25.4,17.8c-0.4,0.6-2.1,0.8-7.4-1c5.3,3.6,13.5,10.1,20.9,20.3
		c14.2,19.7,19,44.5,16.1,45.9c-0.8,0.3-2-0.9-4.2-3.3c-7.9-8.4-10.3-17.1-11-16.9c-1,0.3,7.1,21.7,7,45.6c0,3.8-0.5,41.5-17.1,47.5
		c-7.5,2.7-13.8-2.8-24-7.6c-23.1-10.8-59.9-9.8-133.5-7.6c-3.7,0.1-13.3,0.4-18.3-5.7C687.5,403.9,687.1,399.8,687.1,397.2z"/>
	<path class="st2" d="M576.4,985.8c10.6,5.9,22,12.9,33.8,21.1c12.5,8.7,23.6,17.5,33.3,25.8c15.3-10.1,25.8-16.5,33.5-20.4
		c2.1-1,6.5-3.2,6.8-6.8c0.4-3.9-4.2-7.1-5.6-8.1c-13.1-17.7-28.7-35.3-47.1-52c-1.9-1.7-3.7-3.3-5.6-5c-1.3,4-3.1,8.2-5.6,12.4
		C607.5,974.4,585.8,982.8,576.4,985.8z"/>
	<path class="st2" d="M861.1,1005c-0.7,7.2-2.8,33,8.7,38.4c3.1,1.5,6.2,1,8.1,0.6c45.9-8.3,78.7-29.1,78.7-29.1
		c4.8-3.1,12-7.8,20.4-14.2c-5.3-3.4-15.7-11.1-23.5-24.8c-7.8-13.7-9.1-26.5-9.3-32.8c-9,9.3-19.7,19.2-32.2,29.1
		C893.8,986.4,876.3,997,861.1,1005z"/>
	<path class="st2" d="M599.6,620.8c0.2,11.9,1.5,26.8,5.6,43.4c5.3,21.8,13.4,39.1,20.4,51.4c15.9-1.7,31.8-3.3,47.7-5
		c0.3-5.2,0.1-11.6-1.2-18.6c-3.3-17.5-11.9-29.9-17.3-36.6c-0.4-6.6-0.8-13.2-1.2-19.8c-3.1-2.9-7-6-11.8-8.7
		C624.5,617.5,607,619.5,599.6,620.8z"/>
	<path class="st2" d="M903.8,620.8c6.2-1.5,18.6-3.5,31.6,1.9c3.1,1.3,5.8,2.8,8.1,4.3c0,12.3-1.9,22.5-3.7,29.7
		c-1.9,7.5-7,24.2-19.8,41.5c-4.1,5.6-8.1,9.9-11.2,13c-19.2-0.4-38.4-0.8-57.6-1.2c2-5.5,5-12,9.3-18.6
		c11.1-16.9,25.4-26.2,34.1-31c0.8-5.2,1.8-10.5,3-16.1C899.4,635.9,901.6,628.1,903.8,620.8z"/>
	<path class="st2" d="M690.3,408.8c-1.5,3-3.8,8.6-3.1,15.5c0.7,6.7,4.6,16.4,10.6,17.4c2.8,0.5,4.9-1.1,7.9,0.4
		c2.3,1.2,3.4,3.3,4,4.4c2.7,5.1,6.7,9.3,9.3,14.5c3.7,7.5,20.3,26.5,44.8,33.6c27,7.7,49.7-2.4,56.6-5.6
		c29.2-13.6,41.2-39.1,44.1-46c1.8,1,6.7,3.1,12.4,1.9c8.5-1.9,15.3-10.6,14.3-19.3c-0.9-7.5-7.7-14.5-12.4-13.7
		c-4.4,0.8-4.2,7.8-9.3,9.9c-2.8,1.2-5.9,0-18.7-7.5c-9-5.3-13.5-7.9-15.8-9.6c-14.6-11-20.6-23-22.1-22.1c-2,1.1,9.6,21.1,6.8,23
		c-2.5,1.7-16.6-11.9-26.7-28c-2.5-4-4.3-7.4-5.6-9.9c-3.9,3.7-9.6,8.6-16.8,13.9c-6.6,4.8-14.7,10.6-26.1,15.3
		c-10.5,4.3-22.1,6.9-23,5c-0.8-1.9,10.2-5.6,17.4-17.4c5.4-8.7,6.6-18.5,5-19.3c-1.9-0.9-7.3,11.1-22.4,26.7
		c-4.6,4.8-7.3,6.9-9.9,8.7C703.4,406.1,695.5,408,690.3,408.8z"/>
	<path class="st2" d="M754.8,474.9c2.5,12.3,6.3,21.8,9.4,28.3c6,12.4,10.2,21.2,18.9,23.3c8.7,2.1,16.7-3.8,18.3-5
		c10.7-7.9,14.9-23.5,11.6-39.9C793.6,479.4,774.2,477.1,754.8,474.9z"/>
	<path class="st3" d="M657.3,899c-7.5-21.8-14.8-47.1-20.3-75.6c-6.6-34.1-9.4-65-10.2-91.4c14.6-1.8,34.7-4,58.7-5.6
		c66.8-4.5,102.5-0.4,194.1-1.1c15.8-0.1,36.5-0.4,60.9-1.1c-2.8,39.6-5.5,79.4-7.9,119.6c-1.2,19.6-2.3,39.2-3.4,58.7
		c-40,3.6-72.3,5-94.8,5.6c-30.3,0.9-31.2-0.1-60.9,1.1c-33.1,1.3-44.7,3-64.3,1.1C686.6,908.2,668.6,903,657.3,899z"/>
	<ellipse class="st4" cx="784.7" cy="798.4" rx="28.9" ry="33.1"/>
	<path class="st3" d="M603.3,1130.6c1.3-15.1,4.4-27.5,7.1-36.3c5.6-17.9,12.3-28.6,25.6-49.9c6.6-10.6,14.2-21.7,19-20.2
		c3,0.9,3,6.2,5.4,6.5c3.2,0.4,3.8-11.8,11.9-23.2c3-4.2,6.1-7.1,8.3-8.9c7.2,6.1,15.2,12.2,23.8,18.4c6.3,4.5,12.4,8.7,18.4,12.5
		c-3.6,3.5-9.1,8.5-16.1,14.3c-11.6,9.6-19.7,14.8-26.8,19.6c-15.9,11-29.8,23.8-57.7,49.3C614.3,1120.2,607.7,1126.4,603.3,1130.6z
		"/>
	<path class="st3" d="M850.6,1007.5c-3,4.6-6.6,11.8-7.1,20.8c-0.5,9.6,2.8,16.3,10.1,32.7c11.7,26.4,10,24.7,13.1,30.3
		c10,18.4,24.5,28.1,52.3,48.2c4.4,3.1,9.1,6.4,11.9,4.8c2.8-1.6,2.3-7.5-3-29.7c0,0-8.8-36.9-20.2-53.5c-3.3-4.8-6.5-7.2-8.3-8.3
		c-2.9-1.8-5.5-2.7-8.3-3.6c-2.9-0.9-7.2-2-12.5-2.4c-0.6-6-1.3-11.1-1.8-14.9c-1.7-12.1-3.1-17.6-5.9-23.2c-2.1-4-3.5-6.8-6.5-7.7
		C858,999,851,1007,850.6,1007.5z"/>
	<g>
		<g>
			<g>
				<path class="st5" d="M865.1,442c0.2,0.1,0,0.8-0.3,2.2c-0.2,0.7-0.4,1.5-0.7,2.5c-0.4,1-0.8,2.1-1.3,3.4
					c-0.5,1.3-1.2,2.6-1.9,4.1c-0.7,1.5-1.7,3-2.7,4.7c-0.5,0.8-1.1,1.7-1.7,2.5c-0.6,0.8-1.2,1.7-1.9,2.6c-1.4,1.7-2.8,3.6-4.5,5.3
					c-1.6,1.9-3.5,3.6-5.4,5.5c-1,0.9-2,1.8-3.1,2.7c-1,0.9-2.2,1.7-3.3,2.6c-4.6,3.5-9.8,6.8-15.6,9.7c-1.5,0.7-2.9,1.5-4.4,2.1
					c-1.5,0.7-3,1.4-4.6,1.9c-3.2,1.3-6.4,2.4-9.8,3.3c-6.8,1.9-14.1,3.2-21.7,3.2c-3.8,0-7.5-0.3-11.2-0.9
					c-3.6-0.6-7.2-1.4-10.6-2.6c-6.8-2.2-13-5.2-18.5-8.7c-5.5-3.5-10.2-7.5-14.3-11.6c-4-4.1-7.4-8.3-10.1-12.4
					c-5.5-8.1-8.7-15.3-10.5-20.4c-1.8-5.1-2.4-8-2.1-8.1c0.3-0.1,1.5,2.6,3.9,7.4c2.3,4.8,5.9,11.6,11.6,19.1
					c2.8,3.8,6.2,7.7,10.2,11.5c4,3.8,8.6,7.5,13.8,10.7c5.2,3.2,11.1,6,17.5,8c3.2,1,6.5,1.8,9.9,2.3c3.4,0.5,6.9,0.9,10.4,0.8
					c7,0,13.9-1.1,20.4-2.9c3.2-0.9,6.4-1.9,9.4-3.1c1.5-0.5,3-1.2,4.5-1.8c1.5-0.6,2.9-1.3,4.3-1.9c5.6-2.7,10.7-5.7,15.1-8.9
					c1.1-0.8,2.2-1.6,3.3-2.4c1-0.8,2.1-1.7,3-2.5c1.9-1.7,3.8-3.3,5.4-5c6.7-6.6,10.8-13.1,13.4-17.7c0.6-1.2,1.2-2.2,1.7-3.1
					c0.4-0.9,0.8-1.7,1.2-2.3C864.5,442.6,864.9,442,865.1,442z"/>
			</g>
		</g>
	</g>
	<g>
		<g>
			<g>
				<path class="st5" d="M807.2,465.6c0.4,0.5-1.2,3.1-4.8,6.5c-1.8,1.7-4.1,3.6-6.9,5.4c-2.8,1.8-6.2,3.4-10.1,4.3
					c-3.9,0.9-7.8,1-11.2,0.4c-3.4-0.6-6.4-1.8-8.5-3.2c-2.2-1.4-3.7-3-4.5-4.2c-0.8-1.2-1-2-0.7-2.2c0.6-0.5,2.7,1.7,6.8,3.3
					c2,0.9,4.6,1.5,7.5,1.8c2.9,0.3,6.1,0.1,9.4-0.7c6.6-1.7,12.1-5.1,16-7.7C804.3,466.8,806.8,465.1,807.2,465.6z"/>
			</g>
		</g>
	</g>
	<g>
		<g>
			<g>
				<path class="st5" d="M777.6,459.7c-0.2,0.6-1.5,0.9-3.4,0.2c-1.9-0.7-4.2-2.7-5.2-5.8c-1-3.1-0.4-6.1,0.7-7.8
					c1.1-1.7,2.3-2.3,2.8-1.9c0.6,0.4,0.5,1.5,0.5,3c0,1.5,0.1,3.3,0.7,5.1c0.6,1.8,1.7,3.3,2.6,4.5
					C777,458.2,777.8,459.1,777.6,459.7z"/>
			</g>
		</g>
	</g>
	<g>
		<g>
			<g>
				<path class="st5" d="M751,437c-0.5,0.5-1.6,0.3-2.9-0.7c-1.3-1-2.8-2.8-3.6-5.2c-0.8-2.4-0.9-4.7-0.5-6.3
					c0.4-1.6,1.1-2.5,1.8-2.4c0.7,0.1,1.2,1,1.7,2.3c0.5,1.3,1,3,1.7,4.8c0.7,1.8,1.3,3.4,1.8,4.8C751.3,435.5,751.5,436.6,751,437z
					"/>
			</g>
		</g>
	</g>
	<g>
		<g>
			<g>
				<path class="st5" d="M808,437.5c-0.5-0.4-0.4-1.4-0.1-2.7c0.3-1.3,0.9-2.8,1.5-4.5c0.6-1.7,1.2-3.2,1.8-4.4
					c0.6-1.2,1.2-1.9,1.9-1.9c0.7,0,1.3,0.9,1.6,2.4c0.3,1.5,0.1,3.6-0.7,5.7c-0.8,2.1-2.1,3.8-3.3,4.7
					C809.6,437.7,808.6,438,808,437.5z"/>
			</g>
		</g>
	</g>
	<g>
		<g>
			<g>
				<path class="st5" d="M754.8,411.4c-0.3,0.6-1.8,0.4-4,0.3c-2.2-0.1-5.1-0.1-8.1,0.6c-1.5,0.4-2.9,0.9-4.2,1.5
					c-0.6,0.3-1.2,0.6-1.7,0.9c-0.4,0.2-0.8,0.5-1.2,0.8c-0.7,0.6-1,1-1.2,1.5c-0.2,0.5-0.2,0.9-0.5,1c-0.3,0.1-0.9,0-1.4-0.8
					c-0.2-0.4-0.4-1-0.3-1.7c0-0.7,0.2-1.4,0.6-2.1c0.3-0.7,0.8-1.4,1.5-2c0.6-0.6,1.2-1.1,2-1.6c1.5-1,3.3-1.8,5.3-2.3
					c4-1,7.8-0.3,10.2,0.8C754.1,409.5,755.1,410.9,754.8,411.4z"/>
			</g>
		</g>
	</g>
	<g>
		<g>
			<g>
				<path class="st5" d="M824.7,414.7c-0.5,0.5-1.9-0.3-3.8-1.6c-1.9-1.3-4.4-3.1-7.2-4.1c-2.7-0.9-5.5-0.8-7.4-0.3
					c-1.9,0.5-3.1,1.4-3.7,1c-0.3-0.2-0.3-0.7-0.1-1.4c0.3-0.8,1-1.7,2.1-2.6c2.3-1.8,6.4-2.8,10.6-1.3c2,0.7,3.7,1.8,5,2.9
					c1.3,1.1,2.3,2.3,3,3.3C824.7,412.7,825.2,414.3,824.7,414.7z"/>
			</g>
		</g>
	</g>
	<g>
		<g>
			<g>
				<path class="st5" d="M681.9,421.2c0.7,0.2,0.3,2.6,0.8,6c0.2,1.7,0.7,3.7,1.6,5.8c0.4,1,1,2.1,1.6,3.1c0.7,1,1.4,2,2.3,2.9
					c3.5,3.7,8.2,4.8,11.5,4.5c3.3-0.2,5.1-1.8,5.6-1.3c0.1,0.1,0.1,0.3,0.1,0.6c-0.1,0.3-0.3,0.8-0.7,1.2c-0.7,1-2.2,2.1-4.3,2.8
					c-2.1,0.7-4.8,0.8-7.6,0.1c-1.4-0.3-2.8-0.9-4.2-1.7c-1.4-0.8-2.6-1.8-3.8-3c-1.2-1.2-2.1-2.5-2.9-3.8c-0.7-1.3-1.4-2.7-1.8-4
					c-0.9-2.7-1.1-5.2-0.9-7.3c0.2-2.1,0.8-3.7,1.3-4.7C681.1,421.6,681.6,421.1,681.9,421.2z"/>
			</g>
		</g>
	</g>
	<g>
		<g>
			<g>
				<path class="st5" d="M888.1,420.3c0.3-0.1,0.9,0.3,1.5,1.4c0.6,1,1.3,2.7,1.5,4.9c0.3,2.2,0.2,4.8-0.6,7.7
					c-0.8,2.8-2.4,5.9-4.8,8.3c-2.4,2.5-5.3,4.2-8.1,5.1c-2.8,0.9-5.5,1.1-7.7,0.9c-2.2-0.2-3.9-0.8-5-1.4c-1.1-0.6-1.5-1.2-1.4-1.5
					c0.3-0.6,2.6,0,6.3-0.5c1.8-0.2,3.9-0.7,6.1-1.7c2.2-0.9,4.4-2.4,6.2-4.3c1.9-1.9,3.2-4.1,4-6.3c0.9-2.2,1.2-4.4,1.4-6.2
					C888,423,887.4,420.6,888.1,420.3z"/>
			</g>
		</g>
	</g>
	<g>
		<g>
			<g>
				<path class="st5" d="M699.7,428.4c-0.7,0.2-1.5-0.6-2.3-1.8c-0.8-1.2-1.8-2.7-2.9-3.6c-0.4-0.3-1-0.6-1.5-0.8
					c-0.6-0.2-1.1-0.2-1.6-0.2c-0.5,0-0.9,0-1.3,0.2c-0.4,0.1-0.8,0.2-1.1,0.1c-0.3-0.1-0.6-0.5-0.5-1.1c0-0.6,0.4-1.5,1.3-2.2
					c0.9-0.7,2.1-1.2,3.5-1.2c1.4,0,3,0.4,4.4,1.5c1.2,1,2,2.3,2.4,3.4c0.4,1.1,0.6,2.1,0.6,3C700.7,427.3,700.3,428.3,699.7,428.4z
					"/>
			</g>
		</g>
	</g>
	<g>
		<g>
			<g>
				<path class="st5" d="M692.7,434.9c-0.6,0.1-1.4-0.3-1.9-1.4c-0.4-1.1-0.4-2.8,0.4-4.4c0.8-1.6,2.2-2.6,3.3-2.9
					c1.2-0.3,2,0.1,2.2,0.7c0.3,0.6,0.1,1.4-0.2,2.1c-0.3,0.7-0.6,1.5-1,2.3c-0.4,0.8-0.8,1.5-1.3,2.2
					C693.9,434.2,693.4,434.8,692.7,434.9z"/>
			</g>
		</g>
	</g>
	<g>
		<g>
			<g>
				<path class="st5" d="M869.8,435.5c-0.6-0.1-1.2-1.2-1.2-3.1c0-1.9,0.8-4.4,2.5-6.7c1.7-2.3,3.9-3.7,5.7-4.3
					c1.8-0.6,3-0.4,3.3,0.3c0.3,0.6-0.4,1.5-1.4,2.7c-1,1.1-2.3,2.6-3.6,4.3c-1.3,1.7-2.3,3.4-3.1,4.7
					C871.1,434.6,870.4,435.5,869.8,435.5z"/>
			</g>
		</g>
	</g>
	<g>
		<g>
			<g>
				<path class="st5" d="M876.7,437.1c-0.7-0.1-1.2-0.6-1.7-0.9c-0.5-0.3-0.9-0.6-1.2-1c-0.3-0.4-0.5-0.8-0.8-1.3
					c-0.2-0.5-0.5-1.1-0.6-1.8c0-0.7,0.5-1.3,1.6-1.5c1-0.2,2.5,0.3,3.5,1.5c1,1.2,1.2,2.7,0.9,3.7
					C878.1,436.8,877.4,437.2,876.7,437.1z"/>
			</g>
		</g>
	</g>
	<g>
		<g>
			<g>
				<path class="st5" d="M679,398.4c-0.3,0.1-0.9-1.4-1.7-4c-0.2-0.7-0.4-1.4-0.6-2.2c-0.2-0.8-0.3-1.7-0.5-2.7
					c-0.3-1.9-0.8-4.2-1-6.6c-0.1-1.2-0.2-2.5-0.4-3.9c-0.1-1.4-0.1-2.8-0.2-4.2c-0.2-2.9,0-6.1,0.2-9.4c0.5-6.6,1.5-13.8,3.3-21.2
					c1.9-7.4,4.5-14.2,7.3-20.2c1.5-2.9,2.8-5.8,4.4-8.3c0.8-1.3,1.4-2.5,2.2-3.6c0.8-1.1,1.5-2.2,2.2-3.2c1.4-2.1,2.8-3.8,4-5.3
					c0.6-0.8,1.2-1.5,1.8-2.1c0.6-0.6,1.1-1.2,1.6-1.7c2-2,3.1-3,3.4-2.7c0.3,0.2-0.4,1.6-1.9,3.9c-0.4,0.6-0.8,1.2-1.2,1.9
					c-0.4,0.7-0.9,1.5-1.4,2.3c-1,1.7-2.2,3.5-3.3,5.6c-0.6,1-1.2,2.1-1.9,3.3c-0.6,1.1-1.2,2.4-1.9,3.7c-1.3,2.5-2.5,5.3-3.8,8.2
					c-2.4,5.9-4.8,12.4-6.7,19.5c-1.8,7.1-2.9,14-3.6,20.3c-0.2,3.2-0.6,6.2-0.6,9c0,1.4-0.1,2.8-0.1,4.1c0,1.3,0,2.6,0,3.8
					c0,2.4,0.2,4.6,0.2,6.5c0,1,0.1,1.9,0.1,2.7c0.1,0.8,0.1,1.6,0.2,2.3C679.3,396.7,679.3,398.3,679,398.4z"/>
			</g>
		</g>
	</g>
	<g>
		<g>
			<g>
				<path class="st5" d="M693.5,373.1c0.4,0.6-0.7,2-2.3,4.1c-0.8,1.1-1.8,2.3-2.7,3.8c-1,1.4-2,3-2.9,4.8c-0.9,1.8-1.7,3.5-2.3,5.1
					c-0.6,1.6-1.2,3.1-1.6,4.4c-0.8,2.5-1.4,4.2-2.1,4.2c-0.6,0-1.3-1.8-1.3-4.8c0-1.5,0.2-3.3,0.7-5.2c0.5-1.9,1.2-4,2.3-6
					c1.1-2,2.4-3.8,3.7-5.3c1.3-1.5,2.7-2.7,3.9-3.5C691.3,373,693.2,372.6,693.5,373.1z"/>
			</g>
		</g>
	</g>
	<g>
		<g>
			<g>
				<path class="st5" d="M703,415.9c-0.6,0.4-1.9-0.6-3.6-2.1c-1.7-1.5-3.9-3.4-6.7-4.2c-1.3-0.4-2.6-0.4-3.6-0.2
					c-1,0.2-2,0.8-2.7,1.3c-1.4,1.1-1.9,2.5-2.6,2.5c-0.3,0-0.7-0.4-0.9-1.2c-0.2-0.8,0-2.1,0.7-3.4c0.7-1.3,2-2.7,4-3.5
					c2-0.8,4.3-0.8,6.5-0.2c2.1,0.6,3.9,1.8,5.2,3.1c1.3,1.3,2.2,2.6,2.8,3.7C703.3,413.9,703.6,415.5,703,415.9z"/>
			</g>
		</g>
	</g>
	<g>
		<g>
			<g>
				<path class="st5" d="M687.9,403.7c-0.5,0.4-1.9-0.2-3.4-2.1c-0.7-0.9-1.4-2.1-2-3.6c-0.6-1.5-1-3.1-1.1-4.9
					c-0.1-1.8,0-3.5,0.4-5.1c0.4-1.5,0.9-2.8,1.5-3.9c1.2-2.1,2.5-2.9,3-2.6c0.6,0.3,0.5,1.7,0.3,3.7c-0.1,1-0.2,2.1-0.3,3.4
					c0,1.3,0,2.6,0.1,4.1c0.1,1.4,0.3,2.8,0.6,4c0.3,1.2,0.5,2.3,0.8,3.3C688.1,401.9,688.4,403.3,687.9,403.7z"/>
			</g>
		</g>
	</g>
	<g>
		<g>
			<g>
				<path class="st5" d="M747.5,357.8c0.5,0.4-1,3.9-4.3,9.1c-1.6,2.6-3.7,5.6-6.2,8.9c-2.5,3.2-5.4,6.7-8.6,10.1
					c-3.2,3.4-6.5,6.5-9.5,9.2c-3.1,2.7-6,5-8.5,6.8c-5,3.6-8.5,5.3-8.8,4.8c-0.8-1.1,10.7-10.7,23.3-24.1
					C737.5,369.2,746.3,357,747.5,357.8z"/>
			</g>
		</g>
	</g>
	<g>
		<g>
			<g>
				<path class="st5" d="M787.7,365.5c0.4,0.4-3.7,6.2-12.5,13.6c-4.4,3.7-10,7.7-16.7,11.4c-1.7,0.9-3.4,1.9-5.2,2.7
					c-1.8,0.9-3.6,1.7-5.5,2.6c-1.9,0.8-3.9,1.6-5.9,2.3c-1,0.4-2,0.7-3.1,1.1c-0.5,0.2-1,0.4-1.6,0.5c-0.7,0.2-1.4,0.4-2,0.6
					l-1.5,0.5l-1.5,0.4c-1,0.3-1.9,0.5-2.8,0.7c-1.9,0.4-3.7,0.8-5.5,1.3c-1.9,0.4-3.7,0.8-5.5,1.2l-1.4,0.3l-0.7,0.1l-0.4,0
					c-0.5,0-0.9,0.1-1.4,0.1c1.6-1.3,3.2-2.5,4.8-3.8c0.8-0.7,1.7-1.3,2.5-2l0.6-0.5l0.5-0.4l1-0.9c0.7-0.6,1.4-1.2,2-1.7l1-0.9
					l0.5-0.4c0.2-0.1,0.2-0.2,0.4-0.4c0.9-1,1.8-1.9,2.6-2.8c0.5-0.5,0.7-0.8,0.9-1.1c0.2-0.3,0.5-0.6,0.7-0.9
					c0.5-0.6,0.9-1.2,1.4-1.8c0.9-1.2,1.7-2.4,2.5-3.6c3.1-4.8,5.3-9.5,7-13.4c3.4-7.9,5-12.9,5.6-12.7c0.5,0.1-0.1,5.4-2.8,13.8
					c-1.4,4.2-3.3,9.2-6.4,14.4c-0.8,1.3-1.6,2.6-2.5,4c-0.4,0.7-0.9,1.3-1.4,2c-0.2,0.3-0.5,0.7-0.7,1c-0.2,0.3-0.6,0.7-0.6,0.8
					c-0.2,0.3-0.5,0.6-0.7,0.9c-0.2,0.2-0.3,0.4-0.5,0.5c-0.3,0.3-0.6,0.6-0.9,0.8l-0.3,0.2l-0.1,0.1l0.1,0l0.2-0.1
					c0.3-0.1,0.6-0.1,0.9-0.2c0.5-0.2,1.1-0.3,1.6-0.5l1-0.3c0.5-0.1,1-0.3,1.5-0.5c1-0.3,2-0.7,2.9-1c1.9-0.7,3.8-1.4,5.7-2.2
					c1.8-0.8,3.7-1.5,5.4-2.4c1.8-0.8,3.4-1.6,5.1-2.5c6.5-3.3,12.1-7,16.7-10.2C782.2,369.9,787.2,365,787.7,365.5z"/>
			</g>
		</g>
	</g>
	<g>
		<g>
			<g>
				<path class="st5" d="M868,421.6c0,0.2-0.6,0.2-1.7,0.1c-0.5-0.1-1.2-0.1-2-0.2c-0.4-0.1-0.8-0.1-1.3-0.2
					c-0.5-0.1-0.9-0.2-1.4-0.3c-1-0.2-2.1-0.5-3.4-0.8c-1.2-0.3-2.5-0.8-3.9-1.3c-1.4-0.4-2.9-1.1-4.4-1.7c-1.6-0.6-3.2-1.4-4.9-2.2
					c-1.7-0.8-3.4-1.8-5.2-2.8c-0.9-0.5-1.8-1.1-2.7-1.7c-0.9-0.6-1.8-1.2-2.7-1.8c-0.9-0.7-1.8-1.3-2.7-2c-0.5-0.3-0.9-0.7-1.4-1
					c-0.4-0.4-0.9-0.7-1.3-1.1c-0.9-0.8-1.8-1.5-2.7-2.3c-0.9-0.8-1.8-1.7-2.7-2.5c-0.9-0.8-1.8-1.8-2.6-2.7
					c-0.9-0.9-1.8-1.9-2.6-2.9c-0.8-1-1.7-2-2.5-3.1c-0.8-1.1-1.6-2.2-2.4-3.3c-3.1-4.5-5.9-9.4-8.3-14.7l4.7-1.3l0.2,1.1
					c1.6,11.2,5.4,21.4,10.3,29.8l4.5,7.7l-7.6-4.6c-3.3-2-6.1-4.3-8.7-6.7c-2.5-2.4-4.7-4.8-6.6-7.3c-3.8-4.9-6.5-9.5-8.6-13.5
					c-4.1-7.9-5.7-12.8-5.3-13c0.5-0.2,3,4.3,7.6,11.6c2.4,3.6,5.3,8,9.1,12.4c3.8,4.5,8.7,8.9,14.7,12.5l-3.1,3.1
					c-5.4-8.8-9.6-19.6-11.3-31.4l-0.2-1.2l-2.4-17.4l7.1,16.1c2.2,5,4.8,9.6,7.7,13.9c0.7,1,1.5,2.1,2.2,3.1c0.8,1,1.6,2,2.3,2.9
					c0.7,1,1.6,1.9,2.4,2.8c0.8,0.9,1.6,1.8,2.4,2.6c0.8,0.8,1.7,1.7,2.5,2.5c0.8,0.8,1.7,1.5,2.5,2.3c0.4,0.4,0.8,0.7,1.2,1.1
					c0.4,0.4,0.9,0.7,1.3,1c0.9,0.7,1.7,1.4,2.5,2c0.8,0.6,1.7,1.2,2.5,1.8c0.8,0.6,1.6,1.2,2.5,1.7c1.7,1,3.2,2.1,4.8,3
					c1.6,0.9,3,1.8,4.5,2.4c1.5,0.7,2.8,1.5,4.1,2c1.3,0.6,2.5,1.1,3.7,1.6c1.2,0.4,2.2,0.8,3.2,1.2c0.5,0.2,0.9,0.4,1.3,0.5
					c0.4,0.1,0.8,0.3,1.2,0.4c0.7,0.3,1.4,0.5,1.9,0.7C867.5,421.2,868,421.4,868,421.6z"/>
			</g>
		</g>
	</g>
	<g>
		<g>
			<g>
				<path class="st5" d="M616.4,516.7c-0.3-0.2,0.2-1.7,1.3-4.3c0.3-0.7,0.6-1.4,1-2.2c0.4-0.8,0.8-1.6,1.3-2.5c1-1.8,2-3.8,3.5-6
					c0.7-1.1,1.4-2.2,2.2-3.4c0.8-1.2,1.7-2.3,2.5-3.5c1.7-2.5,3.8-4.9,6-7.5c4.5-5.1,9.8-10.3,15.9-15.3c6.1-4.9,12.4-9,18.3-12.3
					c3-1.6,5.8-3.1,8.6-4.3c1.4-0.6,2.7-1.2,4-1.7c1.3-0.5,2.6-1,3.8-1.4c2.4-0.9,4.6-1.5,6.6-2.1c1-0.3,1.9-0.5,2.7-0.7
					c0.9-0.2,1.6-0.3,2.3-0.5c2.8-0.5,4.4-0.7,4.5-0.3c0.1,0.3-1.3,1.1-3.9,2.2c-0.7,0.3-1.4,0.6-2.2,0.9c-0.8,0.3-1.6,0.7-2.5,1.1
					c-1.8,0.8-3.9,1.6-6.2,2.7c-1.1,0.5-2.3,1.1-3.5,1.7c-1.2,0.6-2.5,1.3-3.8,1.9c-2.6,1.3-5.3,2.9-8.1,4.5
					c-5.6,3.4-11.6,7.4-17.5,12.2c-5.9,4.8-11.1,9.7-15.6,14.5c-2.2,2.4-4.3,4.7-6.2,7c-0.9,1.1-1.9,2.2-2.7,3.3
					c-0.8,1.1-1.6,2.1-2.4,3.1c-1.6,1.9-2.8,3.8-4,5.4c-0.6,0.8-1.1,1.6-1.6,2.2c-0.5,0.7-0.9,1.4-1.3,1.9
					C617.7,515.6,616.7,516.8,616.4,516.7z"/>
			</g>
		</g>
	</g>
	<g>
		<g>
			<g>
				<path class="st5" d="M621.7,714.5c-0.2,0.2-2.5-1-6-4.4c-3.4-3.4-7.7-9-11.4-16.7c-1.9-3.8-3.7-8.1-5.4-12.8
					c-0.8-2.3-1.7-4.8-2.5-7.3c-0.8-2.5-1.6-5.2-2.4-7.8c-3-10.8-5.4-22.9-6.5-35.9c-1.2-12.9-0.9-25.3,0.4-36.5
					c1.3-11.2,3.6-21,6-29.2c2.6-8.1,5.3-14.4,7.4-18.6c2.2-4.2,3.6-6.4,3.9-6.3c0.8,0.4-3.7,9.8-8,25.8c-2,8.1-3.9,17.8-4.9,28.7
					c-1,10.9-1.1,23,0,35.6c1.1,12.6,3.3,24.5,6,35.1c0.7,2.6,1.4,5.2,2.1,7.7c0.7,2.5,1.5,4.9,2.3,7.2c1.5,4.7,3.1,8.9,4.7,12.7
					c3.2,7.6,6.8,13.2,9.7,16.9C620,712.4,621.9,714.2,621.7,714.5z"/>
			</g>
		</g>
	</g>
	<g>
		<g>
			<g>
				<path class="st5" d="M670.7,590.3c-1.3,0.5-4.6-5.7-10.1-12.2c-5.4-6.5-10.9-10.8-10.2-12.1c0.3-0.6,2.2-0.2,4.9,1.3
					c2.7,1.4,6,4.1,9,7.6c3,3.6,5,7.4,5.9,10.2C671.3,588.1,671.3,590.1,670.7,590.3z"/>
			</g>
		</g>
	</g>
	<g>
		<g>
			<g>
				<path class="st5" d="M654.9,644.4c-0.6,0.1-1.8-3.4-2.1-9.2c-0.2-2.9,0-6.4,0.3-10.2c0.4-3.8,1-7.9,1.8-12.2
					c3-17.1,6.5-30.8,7.8-30.5c1.3,0.2,0,14.3-3,31.4c-0.8,4.3-1.5,8.3-2.1,11.9c-0.6,3.6-1.1,6.9-1.4,9.7
					C655.6,640.8,655.6,644.3,654.9,644.4z"/>
			</g>
		</g>
	</g>
	<g>
		<g>
			<g>
				<path class="st5" d="M674.9,707.8c-0.7,0.1-1.8-3.9-3.8-10.3c-1-3.2-2.2-6.9-3.8-11c-0.8-2-1.7-4.1-2.6-6.3
					c-0.9-2.2-1.9-4.5-3-6.7c-2.2-4.5-4.6-8.5-7.2-11.9c-2.6-3.4-5.2-6.3-7.5-8.6c-4.7-4.6-8-7.1-7.7-7.7c0.3-0.5,4.4,0.9,9.9,5.1
					c2.8,2.1,5.8,4.9,8.8,8.4c3,3.5,5.8,7.8,8.1,12.6c1.2,2.4,2.1,4.7,3,7c0.9,2.2,1.7,4.5,2.4,6.7c1.4,4.3,2.4,8.3,2.9,11.7
					C675.7,703.5,675.5,707.7,674.9,707.8z"/>
			</g>
		</g>
	</g>
	<g>
		<g>
			<g>
				<path class="st5" d="M700,708.5c-1.4,0.3-7.7-28.5-17.7-63.3c-9.8-34.9-19.5-62.6-18.2-63.1c0.6-0.2,3.8,6.4,8.2,17.5
					c4.4,11.1,9.8,26.7,14.7,44.2c5,17.5,8.6,33.6,10.7,45.4C699.8,701,700.6,708.3,700,708.5z"/>
			</g>
		</g>
	</g>
	<g>
		<g>
			<g>
				<path class="st5" d="M943,660c-0.2-0.1,0.1-0.9,0.6-2.5c0.3-0.8,0.7-1.7,1-2.9c0.4-1.1,0.9-2.5,1.4-4c2-6,4.5-14.7,6.2-25.8
					c1.8-11.1,2.8-24.5,2.8-39.4c0-14.9-0.5-31.3-3.7-48.1c-3.2-16.7-9.1-32.1-17.4-44.2c-4.1-6.1-8.7-11.3-13.6-15.6
					c-4.8-4.4-9.8-7.9-14.6-10.9c-4.7-3-9.2-5.5-13.2-7.5c-4-2.1-7.4-3.8-10.3-5.2c-5.7-2.8-8.8-4.5-8.6-4.8
					c0.1-0.3,3.5,0.8,9.4,3.1c3,1.2,6.6,2.6,10.7,4.5c4.1,1.9,8.8,4.2,13.7,7c5,2.9,10.2,6.4,15.4,10.8c5.2,4.4,10.2,9.9,14.6,16.1
					c8.9,12.6,15.2,28.6,18.5,45.8c3.3,17.3,3.6,34,3.4,49.1c-0.2,15.1-1.6,28.7-3.9,39.9c-2.2,11.2-5.3,20.1-7.9,25.9
					c-0.7,1.4-1.3,2.7-1.8,3.8c-0.5,1.1-1.1,2-1.5,2.7C943.7,659.4,943.2,660.1,943,660z"/>
			</g>
		</g>
	</g>
	<g>
		<g>
			<g>
				<path class="st5" d="M905.6,589.8c-0.7,0.2-1.6-1.4-3.2-3.7c-0.4-0.6-0.8-1.2-1.3-1.8c-0.4-0.7-1-1.3-1.5-2
					c-1.1-1.4-2.5-2.8-4-4.2c-1.5-1.4-3.1-2.5-4.6-3.5c-0.8-0.5-1.5-1-2.2-1.3c-0.7-0.4-1.3-0.8-2-1.1c-2.4-1.3-4.1-2.1-4-2.8
					c0.1-0.6,2-1.1,5.1-0.5c0.8,0.1,1.6,0.3,2.5,0.7c0.9,0.3,1.8,0.7,2.7,1.1c1.9,0.9,3.8,2.2,5.6,3.8c1.8,1.6,3.2,3.4,4.4,5.2
					c0.5,0.9,1,1.7,1.4,2.6c0.4,0.8,0.7,1.6,0.9,2.4C906.4,587.6,906.2,589.6,905.6,589.8z"/>
			</g>
		</g>
	</g>
	<g>
		<g>
			<g>
				<path class="st5" d="M892.2,660.6c-1.4-0.5,4.3-18.4,5.1-41.3c1-22.8-3.3-41.2-1.9-41.5c0.6-0.2,2.5,4.2,4.2,11.8
					c0.2,0.9,0.4,1.9,0.6,3c0.2,1,0.4,2.1,0.6,3.2c0.4,2.2,0.6,4.6,0.9,7.2c0.5,5.1,0.7,10.7,0.5,16.6c-0.2,5.9-0.9,11.5-1.7,16.5
					c-0.5,2.5-0.9,4.9-1.5,7.1c-0.3,1.1-0.5,2.2-0.8,3.2c-0.3,1-0.6,2-0.9,2.9C895,656.6,892.8,660.8,892.2,660.6z"/>
			</g>
		</g>
	</g>
	<g>
		<g>
			<g>
				<path class="st5" d="M847.2,712.1c-0.6-0.3,1-4.5,4.5-10.7c3.5-6.2,8.9-14.6,16.2-22.7c3.7-4.1,7.5-7.7,11.2-10.7
					c1.9-1.5,3.7-2.9,5.4-4c0.9-0.6,1.7-1.2,2.6-1.7c0.8-0.5,1.7-1,2.4-1.4c6.3-3.6,10.6-4.8,10.9-4.2c0.3,0.7-3.4,3-9,7.1
					c-0.7,0.5-1.4,1.1-2.2,1.6c-0.7,0.6-1.5,1.2-2.3,1.9c-1.6,1.2-3.2,2.7-4.9,4.2c-3.4,3.1-6.9,6.6-10.5,10.6
					c-7.1,7.9-12.8,15.7-17,21.3C850.4,708.9,847.8,712.4,847.2,712.1z"/>
			</g>
		</g>
	</g>
	<g>
		<g>
			<g>
				<path class="st5" d="M922.6,705.8c-0.5-0.5,1.6-3.4,4.7-8.2c0.4-0.6,0.8-1.2,1.2-1.9c0.4-0.7,0.8-1.4,1.2-2.1
					c0.9-1.4,1.7-3,2.6-4.7c1.7-3.3,3.5-7.1,5.2-11.1c3.3-8,5.7-15.6,7.5-21.1c1.8-5.5,3.1-8.9,3.7-8.8c0.6,0.1,0.6,3.8-0.4,9.6
					c-1,5.8-2.9,13.8-6.3,22.1c-1.7,4.2-3.7,8-5.8,11.4c-1.1,1.7-2,3.3-3.1,4.7c-0.5,0.7-1,1.4-1.5,2c-0.5,0.6-1,1.2-1.5,1.8
					C926.1,704.1,923,706.2,922.6,705.8z"/>
			</g>
		</g>
	</g>
	<g>
		<g>
			<g>
				<path class="st5" d="M636.9,902.7c-0.6,0.2-3.6-9.3-7.5-24.7c-3.9-15.4-8.8-36.9-13.3-60.7c-4.5-23.9-7.8-45.6-9.7-61.4
					c-2-15.8-2.6-25.6-2-25.7c0.7-0.1,2.6,9.6,5.4,25.2c2.8,15.6,6.6,37.2,11.1,61c4.5,23.8,8.8,45.3,11.8,60.9
					C635.8,892.9,637.6,902.6,636.9,902.7z"/>
			</g>
		</g>
	</g>
	<g>
		<g>
			<g>
				<path class="st5" d="M939.3,710.6c0,0.3-4.5,0.9-12.8,1.8c-4.1,0.5-9.2,0.7-15.1,1.1c-5.9,0.4-12.6,0.6-20.1,0.8
					c-14.9,0.4-32.6,0.4-52.3,0c-19.7-0.4-41.3-1.1-63.9-1.7c-22.7-0.6-44.2-0.8-63.8-0.4c-19.6,0.4-37.2,1.4-52,2.7
					c-14.8,1.3-26.7,2.9-34.9,3.9c-8.2,1.1-12.8,1.7-12.9,1.3c-0.1-0.3,4.4-1.5,12.6-3.2c8.2-1.6,20.1-3.7,34.9-5.5
					c14.8-1.8,32.5-3.1,52.2-3.8c19.7-0.7,41.4-0.6,64.1,0c22.7,0.6,44.3,1.4,63.9,2.1c19.6,0.6,37.3,0.9,52.1,1
					c7.4,0,14.1,0,20-0.1c5.9-0.1,11-0.1,15.1-0.3C934.7,710.2,939.3,710.3,939.3,710.6z"/>
			</g>
		</g>
	</g>
	<g>
		<g>
			<g>
				<path class="st5" d="M929.1,902c-0.7-0.1,0-10.4,1.3-27.2c1.3-16.7,3.3-39.8,5.1-65.3c1.8-25.5,3.2-48.6,4.3-65.3
					c1.1-16.7,1.9-27.1,2.6-27.1c0.7,0,1.1,10.4,0.9,27.2c-0.2,16.8-1,40-2.9,65.6c-1.9,25.6-4.3,48.6-6.6,65.3
					C931.7,891.9,929.8,902.1,929.1,902z"/>
			</g>
		</g>
	</g>
	<g>
		<g>
			<g>
				<path class="st5" d="M914.3,905.2c0,0.3-3.7,0.8-10.4,1.4c-6.7,0.6-16.5,1.3-28.6,2c-24.1,1.5-57.5,3.2-94.3,4.7
					c-18.4,0.7-36,1.7-52.1,1.3c-16.1-0.4-30.5-2.4-42.4-3.9c-12-1.5-21.7-2.8-28.4-3.8c-6.7-1-10.4-1.7-10.3-2.1
					c0-0.3,3.8-0.3,10.5,0.2s16.5,1.2,28.5,2.3c12,1,26.3,2.7,42.1,2.8c15.8,0.1,33.4-1,51.8-1.7c36.8-1.6,70.2-2.7,94.4-3.3
					c12.1-0.3,21.9-0.4,28.6-0.4S914.3,904.9,914.3,905.2z"/>
			</g>
		</g>
	</g>
	<g>
		<g>
			<g>
				<path class="st5" d="M765.8,820.8c0.2-0.1,0.6,0.5,1.4,1.5c0.8,1,2.1,2.4,4,3.7c1.9,1.4,4.5,2.7,7.8,3.4c3.2,0.7,7.1,0.8,11-0.5
					c3.9-1.3,7.8-3.8,11-7.5c1.6-1.8,3-3.9,4.2-6.3c1.1-2.3,2-4.9,2.6-7.6c1.1-5.4,1.1-11.4,0-17.4c-0.5-3-1.4-6-2.5-8.8
					c-1.2-2.8-2.7-5.6-4.8-7.8c-2-2.3-4.5-3.9-7.2-4.9c-2.7-0.9-5.7-1.2-8.5-0.8c-5.7,0.6-10.8,3.7-14.7,7.5
					c-3.9,3.9-6.6,8.5-8.4,13.2c-1.7,4.6-2.4,9.3-2.3,13.5c0.1,4.2,1.1,7.9,2.5,11c1.3,3.1,3,5.6,4.5,7.4c3.1,3.7,5.5,5.1,5.2,5.5
					c-0.1,0.1-0.8-0.1-1.9-0.7c-1.2-0.6-2.8-1.7-4.7-3.5c-1.9-1.8-3.9-4.3-5.6-7.5c-1.7-3.2-3.1-7.3-3.5-12c-0.4-4.6,0.2-9.8,1.9-15
					c0.9-2.6,2.1-5.2,3.5-7.7c1.5-2.5,3.3-5,5.4-7.2c2.2-2.3,4.7-4.3,7.6-5.9c2.9-1.6,6.2-2.8,9.7-3.2c3.5-0.4,7.2-0.2,10.7,1
					c3.5,1.2,6.8,3.4,9.3,6.2c2.5,2.8,4.3,6,5.6,9.2c1.3,3.2,2.2,6.6,2.7,9.9c1.1,6.5,1.1,13.1-0.4,19.2c-0.7,3-1.8,5.9-3.2,8.5
					c-1.4,2.6-3.1,5-5,7c-3.8,4.1-8.4,6.8-13,8.1c-4.6,1.3-9.1,0.9-12.7-0.2c-3.6-1.1-6.4-2.8-8.3-4.6c-1.9-1.8-3.1-3.5-3.6-4.7
					C765.8,821.5,765.6,820.8,765.8,820.8z"/>
			</g>
		</g>
	</g>
	<g>
		<g>
			<g>
				<path class="st5" d="M610.7,777.1c0.1,0.3-2.2,1.8-6.5,4.1c-1.1,0.6-2.3,1.2-3.6,1.9c-1.3,0.7-2.7,1.5-4.2,2.4
					c-3,1.7-6.5,3.6-10.2,5.9c-1.9,1.1-3.8,2.3-5.9,3.5c-2,1.2-4.1,2.6-6.3,4c-4.4,2.7-8.8,5.9-13.6,9.1
					c-9.4,6.7-19.4,14.4-29.4,23.2c-10,8.8-18.9,17.7-26.8,26.1c-3.8,4.3-7.6,8.3-10.8,12.3c-1.6,2-3.3,3.8-4.8,5.7
					c-1.5,1.9-2.9,3.7-4.2,5.4c-2.8,3.4-5.1,6.6-7.2,9.4c-1,1.4-2,2.7-2.9,3.9c-0.9,1.2-1.7,2.3-2.4,3.3c-2.9,4-4.6,6.1-4.9,5.9
					c-0.3-0.2,0.9-2.6,3.3-6.9c0.6-1.1,1.3-2.3,2-3.6c0.8-1.3,1.7-2.6,2.6-4.1c1.9-2.9,4-6.3,6.6-9.9c1.3-1.8,2.6-3.7,4-5.6
					c1.4-1.9,3-3.9,4.6-5.9c3.1-4.1,6.8-8.3,10.6-12.7c7.8-8.7,16.8-17.9,26.9-26.8c10.2-8.9,20.4-16.6,30.1-23.2
					c4.9-3.2,9.5-6.3,14-8.9c2.2-1.3,4.4-2.6,6.5-3.8c2.1-1.1,4.2-2.2,6.1-3.3c3.9-2.1,7.5-3.8,10.7-5.3c1.6-0.7,3.1-1.4,4.4-2
					c1.4-0.6,2.7-1.1,3.8-1.5C608,777.7,610.6,776.8,610.7,777.1z"/>
			</g>
		</g>
	</g>
	<g>
		<g>
			<g>
				<path class="st5" d="M634.5,1035.1c-0.4,0.6-10.6-5.3-26.9-15.2c-16.3-9.9-38.5-23.9-63-39.5c-12.2-7.8-23.8-15.4-34.4-22.3
					c-5.3-3.5-10.2-6.8-14.9-9.8c-4.6-3.1-9.1-5.9-12.9-8.9c-3.8-3-7-6.2-9.3-9.4c-2.3-3.2-3.7-6.4-4.4-9c-0.8-2.7-0.8-4.8-0.7-6.3
					c0.1-1.4,0.4-2.2,0.5-2.2c0.2,0,0.3,0.8,0.5,2.1c0.2,1.4,0.6,3.3,1.6,5.7c0.9,2.4,2.5,5.2,4.8,8c2.3,2.8,5.4,5.6,9.2,8.3
					c3.8,2.7,8.3,5.3,13,8.3c4.7,3,9.8,6.1,15.2,9.5c10.7,6.7,22.3,14.1,34.6,21.9c24.4,15.7,46.4,30.1,62.2,40.7
					C625.3,1027.6,634.9,1034.5,634.5,1035.1z"/>
			</g>
		</g>
	</g>
	<g>
		<g>
			<g>
				<path class="st5" d="M725.9,1031.1c-0.2,0.3-3-1.1-8.1-3.8c-0.6-0.3-1.3-0.7-2-1.1c-0.7-0.4-1.4-0.9-2.1-1.3
					c-1.5-0.9-3.1-1.9-4.8-3c-0.9-0.6-1.8-1.1-2.7-1.7c-0.9-0.6-1.8-1.3-2.8-2c-1.9-1.3-3.9-2.8-6-4.3c-8.2-6.2-17.5-14.2-27.3-23.6
					c-9.8-9.4-20-20.3-30.4-31.9c-10.4-11.6-20.2-22.8-29.3-32.7c-2.3-2.5-4.5-4.9-6.7-7.2c-2.2-2.3-4.3-4.6-6.4-6.7
					c-4.1-4.3-8.1-8.1-12-11.3c-3.9-3.1-7.7-5.6-11.2-7.4c-3.5-1.8-6.8-2.8-9.5-3.5c-5.5-1.1-8.6-0.7-8.7-1.1
					c-0.1-0.2,3.1-1.3,9-0.8c2.9,0.4,6.5,1.2,10.3,2.9c3.8,1.6,8,4.1,12.2,7.2c4.2,3.1,8.4,6.9,12.8,11.1c2.1,2.1,4.3,4.3,6.6,6.6
					c2.3,2.3,4.5,4.7,6.9,7.1c9.3,9.8,19.2,20.9,29.6,32.5c10.4,11.6,20.4,22.5,29.9,32c9.5,9.5,18.5,17.6,26.3,24.1
					C715.4,1024,726.4,1030.4,725.9,1031.1z"/>
			</g>
		</g>
	</g>
	<g>
		<g>
			<g>
				<path class="st5" d="M592.7,1133.6c-0.3,0-0.6-1.7-0.6-4.8c0-3.1,0.4-7.5,1.6-12.8c1.2-5.4,3.1-11.5,5.7-18.2
					c2.6-6.7,5.9-13.9,9.9-21.2c8-14.6,17.5-26.4,25-34.2c7.5-7.8,13-11.8,13.4-11.3c0.5,0.5-4.1,5.4-10.8,13.6
					c-6.7,8.3-15.5,20.1-23.3,34.3c-3.9,7.1-7.2,14-10,20.5c-2.7,6.5-5,12.4-6.5,17.4C593.8,1127,593.4,1133.6,592.7,1133.6z"/>
			</g>
		</g>
	</g>
	<g>
		<g>
			<g>
				<path class="st5" d="M717.4,1039.1c0.4,0.6-7.2,5.2-18.9,13.1c-11.7,7.9-27.5,19.4-43.6,33.8c-8,7.2-15.4,14.3-21.9,21.1
					c-1.6,1.7-3.2,3.3-4.7,5c-1.5,1.6-3,3.2-4.4,4.7c-2.8,3.1-5.6,5.9-8.3,8.4c-2.7,2.4-5.3,4.5-7.8,6c-2.5,1.6-4.8,2.5-6.8,3.2
					c-3.9,1.2-6.3,1.1-6.3,0.8c-0.1-0.4,2.1-0.9,5.6-2.6c1.7-0.9,3.8-2,5.9-3.7c2.2-1.6,4.5-3.7,6.9-6.2c2.4-2.5,4.9-5.4,7.6-8.6
					c1.3-1.6,2.8-3.2,4.2-4.9c1.5-1.7,3-3.4,4.6-5.2c6.4-7,13.7-14.4,21.9-21.6c16.3-14.6,32.7-25.8,45-33.1
					C709,1042.1,717.1,1038.6,717.4,1039.1z"/>
			</g>
		</g>
	</g>
	<g>
		<g>
			<g>
				<path class="st5" d="M989.8,907.7c0.1,0.7-2.9,1.5-7.8,2.1c-4.9,0.6-11.7,0.8-19.3,0.1c-7.5-0.7-14.2-2.1-18.9-3.6
					c-4.7-1.5-7.5-2.9-7.3-3.5c0.4-1.4,12.1,1,26.6,2.3C977.8,906.5,989.7,906.3,989.8,907.7z"/>
			</g>
		</g>
	</g>
	<g>
		<g>
			<g>
				<path class="st5" d="M1134.6,932.8c-0.9,0.4-6.1-12.8-18.8-31.5c-1.6-2.3-3.3-4.7-5.1-7.3c-1.9-2.4-3.8-5-5.8-7.6
					c-4.1-5.2-8.7-10.6-13.7-16.1c-10.1-11-22-22.3-35.4-33.2c-13.4-10.9-26.8-20.4-39.3-28.7c-12.5-8.2-24-15.2-34-20.4
					c-20-10.5-33.9-13.4-33.7-14.2c0.1-0.3,3.6,0.1,9.8,1.6c6.2,1.6,15.1,4.5,25.4,9.4c10.4,4.9,22.2,11.6,35,19.7
					c12.7,8.1,26.4,17.6,39.9,28.7c13.5,11.1,25.6,22.6,35.6,34c5.1,5.6,9.5,11.3,13.6,16.7c2,2.7,3.9,5.4,5.7,7.9
					c1.7,2.6,3.3,5.2,4.9,7.6c1.6,2.4,2.9,4.8,4.2,7c0.6,1.1,1.2,2.2,1.8,3.3c0.6,1.1,1.2,2.1,1.7,3.1c1,2,1.9,3.9,2.8,5.7
					c0.8,1.8,1.7,3.3,2.2,4.8C1133.7,929.3,1134.9,932.6,1134.6,932.8z"/>
			</g>
		</g>
	</g>
	<g>
		<g>
			<g>
				<path class="st5" d="M1063.8,874.5c0,0.2-0.8,0.5-2.5,1c-0.8,0.2-1.8,0.5-3,0.8c-0.6,0.1-1.3,0.3-1.9,0.5
					c-0.7,0.2-1.4,0.4-2.2,0.6c-1.5,0.4-3.3,0.9-5.1,1.5c-1.9,0.6-3.9,1.3-6,2c-0.5,0.2-1.1,0.4-1.7,0.6c-0.6,0.2-1.1,0.4-1.7,0.7
					c-1.1,0.4-2.3,0.9-3.5,1.4c-2.4,0.9-4.9,2.1-7.5,3.2c-0.7,0.3-1.3,0.6-2,0.9c-0.7,0.3-1.3,0.7-2,1c-1.3,0.7-2.7,1.3-4.1,2
					c-1.4,0.7-2.8,1.5-4.2,2.2c-1.4,0.8-2.9,1.5-4.4,2.4c-2.9,1.7-6,3.4-9,5.4c-1.5,1-3.1,1.9-4.6,2.9c-1.5,1-3.1,2.1-4.7,3.1
					c-12.6,8.5-25.8,18.9-39.3,30.3c-13.5,11.4-26.3,22.4-38.4,31.9c-6,4.8-11.9,9.1-17.5,13.1c-2.8,2-5.5,3.8-8.2,5.6
					c-1.3,0.9-2.7,1.7-3.9,2.5c-0.6,0.4-1.3,0.8-1.9,1.2c-0.6,0.4-1.3,0.8-1.9,1.1c-5,3-9.6,5.5-13.8,7.6c-2.1,1-4,2-5.8,2.8
					c-1.8,0.8-3.5,1.5-5,2.1c-0.8,0.3-1.5,0.6-2.1,0.9c-0.7,0.2-1.3,0.5-1.9,0.7c-1.2,0.4-2.2,0.8-3,1c-1.6,0.5-2.5,0.7-2.6,0.6
					c-0.3-0.8,13.1-5.9,32.4-18.6c0.6-0.4,1.2-0.8,1.8-1.2c0.6-0.4,1.2-0.8,1.8-1.3c1.2-0.9,2.5-1.7,3.8-2.6c2.6-1.8,5.2-3.7,8-5.7
					c5.4-4.1,11.2-8.5,17.1-13.3c11.8-9.6,24.5-20.7,38.1-32.1c13.6-11.4,27-21.8,39.9-30.3c1.6-1,3.2-2.1,4.8-3.1
					c1.6-1,3.2-1.9,4.8-2.9c3.1-1.9,6.3-3.6,9.3-5.2c1.5-0.8,3-1.5,4.5-2.3c1.5-0.7,2.9-1.5,4.4-2.2c1.5-0.7,2.9-1.3,4.3-1.9
					c0.7-0.3,1.4-0.6,2.1-0.9c0.7-0.3,1.4-0.6,2.1-0.8c2.7-1,5.3-2.2,7.8-2.9c1.3-0.4,2.5-0.8,3.6-1.2c0.6-0.2,1.2-0.4,1.7-0.6
					c0.6-0.2,1.2-0.3,1.7-0.5c2.2-0.6,4.3-1.2,6.3-1.7c1.9-0.4,3.7-0.8,5.3-1.1c0.8-0.2,1.6-0.3,2.3-0.4c0.7-0.1,1.4-0.2,2-0.3
					c1.2-0.2,2.3-0.3,3.2-0.3C1062.9,874.3,1063.8,874.3,1063.8,874.5z"/>
			</g>
		</g>
	</g>
	<g>
		<g>
			<g>
				<path class="st5" d="M932.9,1146.6c-0.1,0.3-2.3-0.4-6.1-2c-1-0.4-2-0.9-3.2-1.4c-1.1-0.5-2.3-1.2-3.6-1.9
					c-2.6-1.4-5.6-2.9-8.7-5c-1.6-1-3.2-2.1-4.9-3.2c-1.7-1.1-3.3-2.4-5.1-3.7c-0.9-0.7-1.8-1.3-2.7-2c-0.4-0.3-0.9-0.7-1.4-1
					c-0.4-0.4-0.9-0.8-1.3-1.1c-1.8-1.5-3.6-3.1-5.5-4.7c-7.3-6.7-14.7-14.6-21.5-23.8c-6.7-9.2-12.1-18.7-16.4-27.6
					c-1-2.3-1.9-4.5-2.9-6.6c-0.2-0.5-0.5-1.1-0.7-1.6c-0.2-0.5-0.4-1.1-0.6-1.6c-0.4-1.1-0.8-2.1-1.1-3.2c-0.7-2.1-1.5-4-2.1-6
					c-0.5-2-1.1-3.8-1.6-5.6c-1.1-3.6-1.6-6.9-2.2-9.8c-0.3-1.5-0.6-2.8-0.7-4c-0.1-1.3-0.3-2.4-0.4-3.4c-0.4-4.1-0.5-6.4-0.1-6.5
					s1,2.2,2,6.1c0.2,1,0.5,2.1,0.8,3.3c0.3,1.2,0.7,2.5,1.1,3.9c0.8,2.8,1.6,6,2.9,9.4c0.6,1.7,1.2,3.5,1.8,5.4
					c0.7,1.9,1.5,3.8,2.3,5.8c0.4,1,0.8,2,1.2,3c0.2,0.5,0.4,1,0.6,1.5c0.2,0.5,0.5,1,0.7,1.5c1,2.1,2,4.2,3,6.4
					c4.3,8.6,9.7,17.7,16.2,26.6c6.6,8.9,13.8,16.7,20.7,23.4c1.8,1.6,3.5,3.2,5.2,4.7c0.4,0.4,0.8,0.8,1.3,1.1
					c0.4,0.4,0.9,0.7,1.3,1.1c0.9,0.7,1.7,1.4,2.5,2.1c1.7,1.3,3.2,2.7,4.8,3.9c1.6,1.2,3.2,2.3,4.6,3.4c2.9,2.2,5.7,3.9,8.2,5.5
					c1.2,0.8,2.3,1.6,3.4,2.2c1.1,0.6,2.1,1.2,2.9,1.7C931.1,1145,933,1146.3,932.9,1146.6z"/>
			</g>
		</g>
	</g>
	<g>
		<g>
			<g>
				<path class="st5" d="M937.1,1137.9c-0.7,0-1.2-5.4-2.5-13.8c-0.2-1.1-0.3-2.2-0.5-3.3c-0.2-1.2-0.4-2.3-0.7-3.6
					c-0.4-2.5-1-5.1-1.6-7.9c-1.3-5.5-3-11.5-5.1-17.6c-2.2-6.1-4.6-11.9-7-17c-1.2-2.5-2.4-5-3.6-7.2c-0.6-1.1-1.1-2.2-1.7-3.2
					c-0.6-1-1.1-2-1.7-2.9c-4.3-7.4-7.2-11.9-6.7-12.4c0.5-0.4,4.4,3.4,9.6,10.5c0.6,0.9,1.3,1.8,2,2.8c0.7,1,1.3,2.1,2,3.2
					c1.4,2.2,2.7,4.6,4.1,7.2c2.7,5.2,5.3,11,7.5,17.4c2.2,6.4,3.8,12.6,4.9,18.3c0.5,2.9,1,5.6,1.2,8.2c0.1,1.3,0.3,2.5,0.4,3.7
					c0.1,1.2,0.1,2.3,0.2,3.4C938.5,1132.5,937.7,1137.9,937.1,1137.9z"/>
			</g>
		</g>
	</g>
	<g>
		<g>
			<g>
				<path class="st5" d="M1133.3,928.4c0.2,0.2-2.3,3.1-7.3,8.1c-5.1,4.8-12.6,11.7-22.7,19.1c-10.1,7.5-22.6,15.6-37.1,23.6
					c-14.5,8-31,15.8-48.5,23.2c-17.6,7.4-34.5,13.9-50,19.6c-15.5,5.7-29.5,10.6-41.4,14.5c-11.8,3.9-21.5,6.9-28.2,8.8
					c-6.7,1.9-10.5,2.8-10.6,2.5c-0.1-0.3,3.5-1.8,10-4.3c6.5-2.5,16-5.9,27.7-10.2c11.7-4.3,25.6-9.5,40.9-15.4
					c15.3-5.9,32.2-12.5,49.7-19.9c17.5-7.4,33.8-15,48.3-22.7c14.5-7.7,27-15.4,37.3-22.5c10.2-7,18-13.4,23.4-17.7
					C1130,930.6,1133.1,928.2,1133.3,928.4z"/>
			</g>
		</g>
	</g>
	<g>
		<g>
			<g>
				<path class="st5" d="M631,891.3c0.1,1.4-8.5,3.3-18.9,6.4c-10.4,3-18.7,6.2-19.3,4.9c-0.3-0.6,1.4-2.2,4.6-4
					c3.2-1.9,7.9-4,13.3-5.6c5.4-1.6,10.5-2.4,14.2-2.6C628.6,890.3,630.9,890.6,631,891.3z"/>
			</g>
		</g>
	</g>
	<g>
		<g>
			<g>
				<path class="st5" d="M785.2,529.4c-0.2,0.6-3.1,0.5-7.5-1.2c-2.2-0.8-4.7-2.1-7.3-3.9c-2.6-1.7-5.2-4-7.7-6.7
					c-3.5-3.8-6-8-7.6-11.7c-1.6-3.7-2.2-7-2.4-9.1l1.2,0.6c0,0,0,0,0,0c0,0,0.1,0.1,0,0.1c0,0-0.1,0-0.2,0.1
					c-0.1,0.1-0.2,0.2-0.2,0.4c-0.1,0.1-0.1,0.3-0.1,0.4c0,0.1,0,0.2,0,0.3c-0.1,0.1-0.1,0.1-0.3,0.1c-0.2,0-0.4-0.2-0.6-0.4
					c-0.2-0.3-0.3-0.7-0.3-1.2c0-0.3,0.1-0.5,0.3-0.8c0.2-0.3,0.5-0.6,0.9-0.7l0.7-0.2l0.5,1c1,1.8,2.1,4.6,4,7.8
					c1.9,3.2,4.4,6.8,7.5,10.3c4.4,4.9,9.2,8.4,12.9,10.7C782.9,527.4,785.4,528.7,785.2,529.4z"/>
			</g>
		</g>
	</g>
	<g>
		<g>
			<g>
				<path class="st5" d="M795.9,530c-1.1-0.9,3.6-8,8-17.3c4.5-9.3,7-17.4,8.4-17.1c0.6,0.1,0.8,2.4,0.3,5.9
					c-0.5,3.5-1.9,8.3-4.3,13.3c-2.4,4.9-5.2,9-7.6,11.7C798.3,529.1,796.4,530.4,795.9,530z"/>
			</g>
		</g>
	</g>
	<g>
		<g>
			<g>
				<path class="st5" d="M875.2,415.4c-0.6-0.2,2.3-7.2,4.5-19.3c1.1-6.1,2-13.5,1.9-21.9c0-8.4-1.1-17.7-3.6-27.4l-2.9-11.4
					l7.1,9.5c5.8,7.7,10.2,17.4,11.9,27.9l0.2,1.3l-4.9,0.1c0.6-6.6,0.5-13.1-0.2-19.4c-0.2-1.6-0.4-3.1-0.6-4.6
					c-0.3-1.5-0.6-3-0.9-4.5c-0.3-1.5-0.7-2.9-1.1-4.3c-0.4-1.4-0.7-2.8-1.3-4.2c-0.5-1.4-0.9-2.7-1.4-4c-0.5-1.3-1.1-2.6-1.6-3.8
					c-0.3-0.6-0.5-1.3-0.8-1.9c-0.3-0.6-0.6-1.2-0.9-1.8c-0.6-1.2-1.2-2.4-1.7-3.5c-0.6-1.1-1.3-2.2-1.9-3.3
					c-0.6-1.1-1.2-2.2-1.9-3.1c-0.7-1-1.3-2-2-2.9c-0.3-0.5-0.6-1-1-1.4c-0.3-0.4-0.7-0.9-1-1.3c-1.3-1.7-2.6-3.4-3.9-4.9
					c-1.3-1.5-2.5-3-3.7-4.2c-1.2-1.2-2.3-2.4-3.4-3.5c-1.1-1-2.1-1.9-3-2.8c-0.5-0.4-0.9-0.8-1.3-1.2c-0.4-0.3-0.8-0.7-1.2-1
					c-0.7-0.6-1.4-1.1-1.8-1.6c-1-0.9-1.5-1.4-1.4-1.6c0.1-0.1,0.7,0.1,1.9,0.7c0.6,0.3,1.3,0.7,2.1,1.2c0.4,0.3,0.9,0.5,1.3,0.8
					c0.5,0.3,0.9,0.7,1.5,1c1,0.8,2.2,1.6,3.4,2.5c1.2,1,2.4,2.1,3.8,3.3c1.4,1.1,2.7,2.6,4.1,4c1.5,1.4,2.8,3.1,4.3,4.9
					c0.4,0.4,0.7,0.9,1.1,1.3c0.4,0.5,0.7,0.9,1.1,1.4c0.7,1,1.4,1.9,2.2,3c0.8,1,1.4,2.1,2.1,3.2c0.7,1.1,1.4,2.2,2.1,3.4
					c0.6,1.2,1.3,2.4,1.9,3.6c0.3,0.6,0.7,1.2,1,1.9c0.3,0.6,0.6,1.3,0.9,1.9c0.6,1.3,1.2,2.6,1.8,4c0.5,1.4,1,2.8,1.6,4.2
					c0.6,1.4,1,2.9,1.4,4.4c0.4,1.5,0.9,3,1.2,4.5c0.3,1.6,0.7,3.1,1.1,4.7c0.2,1.6,0.5,3.2,0.7,4.9c0.8,6.6,1,13.5,0.3,20.5
					l-1.8,18.6l-3-18.5l-0.2-1.2c-1.6-9.7-5.6-18.7-10.9-26l4.1-2c2.5,10.2,3.3,19.9,3,28.6c-0.2,8.7-1.5,16.3-3.1,22.5
					c-1.6,6.2-3.3,10.9-4.7,14.1C876.4,413.9,875.4,415.5,875.2,415.4z"/>
			</g>
		</g>
	</g>
	<g>
		<g>
			<g>
				<path class="st5" d="M982.6,1007.3c-0.4,0.5-4.3-1.5-9.7-6.1c-0.7-0.6-1.4-1.2-2.1-1.8c-0.7-0.7-1.4-1.4-2.2-2.1
					c-1.5-1.5-3-3.2-4.5-4.9c-3-3.6-6-7.8-8.7-12.6c-2.7-4.7-4.8-9.5-6.4-13.9c-0.7-2.2-1.5-4.3-1.9-6.4c-0.3-1-0.5-2-0.7-2.9
					c-0.2-1-0.4-1.9-0.5-2.7c-1.2-7-1-11.4-0.4-11.5c0.7-0.1,1.7,4.1,3.7,10.6c0.3,0.8,0.5,1.7,0.8,2.6c0.3,0.9,0.6,1.8,1,2.7
					c0.6,1.9,1.5,3.9,2.3,6c1.8,4.1,3.9,8.6,6.4,13.1c2.6,4.5,5.3,8.6,8,12.2c1.4,1.8,2.7,3.5,4,5c0.6,0.8,1.2,1.5,1.9,2.2
					c0.6,0.7,1.2,1.4,1.8,2C980,1003.8,983.1,1006.7,982.6,1007.3z"/>
			</g>
		</g>
	</g>
	<g>
		<g>
			<g>
				<path class="st5" d="M987.2,995.6c-0.5,0.4-3.4-1.6-7.2-5.8c-1.9-2.1-4.1-4.7-6.3-7.8c-2.1-3.1-4.3-6.6-6.3-10.5
					c-2-3.9-3.5-7.7-4.8-11.3c-1.2-3.6-2.1-6.9-2.6-9.6c-1.1-5.6-1-9.1-0.4-9.3c1.4-0.3,4.5,13.1,12.1,28
					C979.2,984.2,988.2,994.6,987.2,995.6z"/>
			</g>
		</g>
	</g>
	<g>
		<g>
			<g>
				<path class="st5" d="M624.7,942.2c0.5,0.3-1,4.6-5.1,10.7c-0.5,0.8-1.1,1.5-1.6,2.4c-0.6,0.8-1.2,1.6-1.9,2.5
					c-1.3,1.7-2.9,3.4-4.5,5.2c-3.4,3.5-7.3,7.1-11.8,10.5c-4.5,3.3-9.2,6-13.5,8.1c-2.2,1-4.3,2-6.3,2.7c-1,0.4-2,0.8-2.9,1.1
					c-1,0.3-1.9,0.6-2.7,0.8c-7,2-11.6,2.2-11.7,1.6c-0.2-0.7,4.1-2.1,10.6-4.9c0.8-0.4,1.7-0.7,2.5-1.1c0.9-0.4,1.8-0.9,2.7-1.3
					c1.9-0.9,3.8-1.9,5.9-3c4-2.3,8.4-4.9,12.7-8.1c4.3-3.2,8.1-6.5,11.5-9.7c1.6-1.6,3.2-3.2,4.6-4.7c0.7-0.8,1.4-1.5,2-2.2
					c0.6-0.7,1.2-1.4,1.8-2.1C621.4,945.5,624,941.9,624.7,942.2z"/>
			</g>
		</g>
	</g>
	<g>
		<g>
			<g>
				<path class="st6" d="M598.1,937.4c0.4,0.3-1.1,3.1-4,7.3c-2.8,4.3-7,10-12.5,15.7c-2.8,2.8-5.6,5.3-8.4,7.4
					c-1.4,1-2.7,2-4.1,2.7c-0.7,0.4-1.3,0.8-1.9,1.1c-0.6,0.3-1.2,0.6-1.8,0.9c-4.7,2.3-7.9,2.9-8,2.5c-0.2-0.5,2.7-1.8,6.9-4.5
					c0.5-0.3,1.1-0.7,1.6-1.1c0.6-0.4,1.1-0.8,1.7-1.2c1.2-0.8,2.4-1.8,3.7-2.8c2.5-2.1,5.2-4.6,7.9-7.3c5.3-5.5,9.7-10.9,13-14.8
					C595.6,939.5,597.8,937.1,598.1,937.4z"/>
			</g>
		</g>
	</g>
	<g>
		<g>
			<g>
				<path class="st5" d="M644.9,630.2c-0.4,0.6-3.5-0.8-8.5-2.6c-2.5-0.9-5.6-1.8-8.9-2.6c-3.4-0.8-7.2-1.4-11.2-1.7
					c-6-0.5-11.6-0.2-16.2,0.5c-4.6,0.6-8.2,1.6-10.6,2l-0.6-1.8c1.6-0.1,2.6,0,2.7,0.3c0.1,0.3-0.7,0.9-2.2,1.6l-0.6-1.8
					c2.1-1.2,5.7-3,10.5-4.2c4.8-1.2,10.9-1.9,17.3-1.4c4.3,0.3,8.4,1.1,12,2.2c3.6,1.2,6.7,2.4,9.2,3.8
					C642.7,627.1,645.2,629.6,644.9,630.2z"/>
			</g>
		</g>
	</g>
	<g>
		<g>
			<g>
				<path class="st5" d="M634.9,606.4c-0.3,1.4-8.8,0.6-19.1,1c-10.3,0.3-18.7,1.5-19.1,0.2c-0.2-0.6,1.8-1.8,5.2-2.9
					c3.4-1.1,8.3-2,13.8-2.2c5.5-0.2,10.4,0.5,13.9,1.4C633.1,604.7,635.1,605.7,634.9,606.4z"/>
			</g>
		</g>
	</g>
	<g>
		<g>
			<g>
				<path class="st5" d="M948.8,630.4c-0.4,0.6-3.1-0.4-7.5-1.9c-1.1-0.4-2.3-0.7-3.6-1.1c-1.3-0.4-2.7-0.7-4.1-1.1
					c-2.9-0.7-6.2-1.3-9.6-1.7c-3.4-0.4-6.7-0.5-9.7-0.5c-1.5,0-2.9,0-4.3,0.2c-1.3,0.1-2.6,0.2-3.7,0.3c-4.6,0.4-7.5,0.9-7.7,0.2
					c-0.2-0.6,2.4-2.2,7.1-3.6c1.2-0.3,2.5-0.7,3.9-0.9c1.4-0.3,2.9-0.5,4.5-0.6c3.2-0.3,6.8-0.3,10.5,0.1c3.7,0.4,7.2,1.2,10.3,2.2
					c1.5,0.5,3,1,4.3,1.6c1.3,0.5,2.5,1.2,3.6,1.7C947,627.7,949.1,629.8,948.8,630.4z"/>
			</g>
		</g>
	</g>
	<g>
		<g>
			<g>
				<path class="st5" d="M934.8,606c-0.3,1.3-7.2,1.1-15.7,0.6c-8.5-0.6-15.4-1.3-15.5-2.6c-0.1-1.3,7-2.8,15.8-2.2
					C928.3,602.3,935.1,604.7,934.8,606z"/>
			</g>
		</g>
	</g>
	<g>
		<g>
			<g>
				<path class="st5" d="M784.6,268c-0.2,0.7-4.3,0.2-10.8,0.1c-0.8,0-1.7,0-2.6,0c-0.9,0-1.8,0.1-2.8,0.1c-1.9,0-3.9,0.3-6.1,0.5
					c-4.3,0.5-8.9,1.4-13.7,2.7c-4.7,1.4-9.1,3.1-13,4.9c-1.9,1-3.8,1.8-5.4,2.8c-0.8,0.5-1.7,0.9-2.4,1.4c-0.8,0.5-1.5,0.9-2.2,1.4
					c-5.5,3.5-8.7,6.1-9.3,5.6c-0.2-0.2,0.3-1.2,1.5-2.7c0.3-0.4,0.6-0.8,1-1.2c0.4-0.4,0.8-0.9,1.3-1.4c1-0.9,2.1-2.1,3.4-3.1
					c0.7-0.5,1.4-1.1,2.1-1.7c0.7-0.6,1.6-1.1,2.4-1.7c1.6-1.2,3.5-2.2,5.5-3.4c4-2.1,8.7-4.1,13.7-5.6c5.1-1.4,10.1-2.2,14.6-2.5
					c2.3-0.1,4.4-0.2,6.5,0c1,0.1,2,0.1,2.9,0.2c0.9,0.1,1.8,0.2,2.7,0.3c1.7,0.2,3.2,0.6,4.5,0.9c0.7,0.2,1.3,0.3,1.8,0.5
					c0.6,0.2,1.1,0.4,1.5,0.5C783.7,267.2,784.7,267.7,784.6,268z"/>
			</g>
		</g>
	</g>
	<g>
		<g>
			<g>
				<path class="st5" d="M792.3,272.1c-1.2,0.6-4.8-4-10.1-8.7c-5.2-4.7-10.2-7.8-9.7-9.1c0.3-0.6,1.9-0.6,4.4,0.3
					c2.4,0.8,5.6,2.6,8.6,5.2c2.9,2.7,5,5.6,6.1,8C792.7,270.1,792.9,271.8,792.3,272.1z"/>
			</g>
		</g>
	</g>
	<g>
		<g>
			<g>
				<path class="st5" d="M802.8,265.6c-0.6,0.3-1.9-0.9-3.9-2.7c-0.5-0.4-1-0.9-1.7-1.4c-0.6-0.5-1.3-1-2-1.5c-1.4-1-3-2-4.8-3
					c-1.8-0.9-3.5-1.6-5.2-2.2c-0.8-0.3-1.6-0.5-2.4-0.7c-0.8-0.2-1.5-0.4-2.1-0.5c-2.6-0.6-4.4-0.9-4.5-1.6
					c-0.1-0.6,1.6-1.6,4.7-1.8c0.8-0.1,1.6-0.1,2.5,0c0.9,0,1.9,0.2,2.9,0.4c2,0.4,4.2,1.1,6.3,2.2c2.1,1.1,3.9,2.5,5.4,3.9
					c0.7,0.7,1.4,1.4,2,2.1c0.6,0.7,1,1.4,1.4,2.1C803.1,263.4,803.3,265.3,802.8,265.6z"/>
			</g>
		</g>
	</g>
	<g>
		<g>
			<g>
				<path class="st5" d="M819.5,273.1c-0.4-0.2-0.4-2.1,1.2-5c0.8-1.4,1.9-3.1,3.5-4.7c0.4-0.4,0.8-0.8,1.3-1.2
					c0.1-0.1,0.3-0.3,0.5-0.4c0.3-0.2,0.5-0.4,0.8-0.6c0.2-0.1,0.3-0.2,0.5-0.2c0.1,0,0.2-0.1,0.2-0.1c0,0,0.1,0,0.1,0l-0.2-0.1
					c-0.5-0.2-0.9-0.3-1.4-0.3c-0.2,0-0.4,0-0.7,0l-0.3,0c-0.2,0-0.2,0-0.8,0c-1.7,0.1-3.4,0.3-5,0.4c-3.2,0.3-5.8,0.7-7.8,1.6
					c-2,0.9-3.4,2-4.2,3c-0.9,0.9-1.3,1.6-1.6,1.5c-0.3-0.1-0.5-1,0-2.5c0.5-1.5,1.8-3.5,4.2-5.1c2.4-1.6,5.6-2.5,8.9-3
					c1.7-0.3,3.4-0.5,5.2-0.7c0.4,0,1.2-0.1,1.9-0.1c0.8,0,1.6-0.1,2.4,0c1.6,0,3,0.3,4.3,0.6c1.3,0.3,2.3,0.7,3.2,1.2
					c0.9,0.5,1.9,0.9,2.9,1.5l0.8,0.4c0.2,0.1,0.1,0.1,0.1,0.1l0,0.1c0,0.1-0.1,0.1,0,0.3c0.1,0.2,0,0.2,0.3,0.5l0.3,0.4l0.2,0.2
					c0.1,0.1,0.2,0.2,0.3,0.3c-1.2,0.3-2.3,0.6-3.4,0.8c-0.9,0.2-1.9,0.5-2.8,0.7c-0.4,0.1-0.9,0.2-1.3,0.3l-0.3,0.1
					c-0.1,0-0.1,0.1-0.2,0.1l-0.4,0.2c-0.5,0.2-1.1,0.5-1.6,0.7c-0.5,0.2-0.9,0.5-1.3,0.7l-0.6,0.4l-0.3,0.2l-0.2,0.2
					c-0.4,0.3-0.8,0.5-1.2,0.8c-1.5,1.1-2.8,2.3-3.7,3.4C821,271.8,820.1,273.3,819.5,273.1z"/>
			</g>
		</g>
	</g>
	<g>
		<g>
			<g>
				<path class="st5" d="M865.5,294c-0.5,0.5-3-1.3-7-4.1c-4-2.8-9.5-6.5-16-9.9c-3.3-1.7-6.4-3.2-9.4-4.4c-1.5-0.6-2.9-1.2-4.2-1.7
					c-1.2-0.5-2.4-0.8-3.5-1c-2.2-0.4-3.8-0.1-4.8,0.4c-1,0.5-1.5,1.1-1.9,1c-0.3-0.1-0.4-1.1,0.6-2.5c0.6-0.6,1.4-1.3,2.5-1.7
					c1.1-0.4,2.4-0.6,3.8-0.7c1.4,0,2.9,0.1,4.5,0.5c1.5,0.4,3,0.8,4.6,1.3c3.2,1.1,6.6,2.5,10.1,4.3c6.9,3.6,12.5,8,16,11.6
					C864.3,290.9,866,293.6,865.5,294z"/>
			</g>
		</g>
	</g>
	<g>
		<g>
			<g>
				<path class="st6" d="M681.9,997.9c0.3,0.4-2.7,2.9-6.6,7.6c-1.9,2.4-4.1,5.4-6,8.9c-1,1.8-1.9,3.7-2.7,5.7
					c-0.4,1-0.8,2.1-1.1,3.2c-0.2,0.6-0.4,1.1-0.6,1.7l-0.3,0.9c-0.1,0.3-0.2,0.5-0.4,1.1c-0.3,0.8-0.7,1.6-1.1,2.3
					c-0.4,0.7-0.8,1.3-1.3,1.8c-0.9,1-1.7,1.7-2.8,2.6c-0.1-0.1-0.2-0.3-0.2-0.4l-0.2-0.5c-0.1-0.3-0.2-0.6-0.4-0.8
					c-0.2-0.5-0.4-1-0.5-1.6c-0.1-0.6-0.2-1.4-0.2-2.2c0-0.5,0-0.9,0-1.3c0-0.2,0-0.4,0-0.6c0-0.1,0-0.2,0-0.3l0-0.1
					c-0.2-0.7-0.4-1.1-0.7-1.2c-0.3-0.2-0.8-0.2-1.4,0.1c-0.6,0.2-1.3,0.7-2,1.1c-0.6,0.4-1.3,0.9-1.8,1.3c-1.1,0.9-2.1,1.9-2.9,2.8
					c-1.6,1.9-2.7,3.6-3.4,4.8c-0.7,1.2-1.1,1.9-1.3,1.9c-0.2-0.1-0.2-0.9,0.2-2.3c0.4-1.4,1.2-3.5,2.7-5.7c0.8-1.1,1.7-2.3,2.9-3.4
					c0.6-0.6,1.2-1.1,1.9-1.6c0.7-0.5,1.4-1.1,2.4-1.5c0.5-0.2,1-0.4,1.7-0.5c0.6-0.1,1.4,0,2.1,0.3c0.7,0.3,1.3,0.8,1.7,1.4
					c0.4,0.6,0.6,1.2,0.8,1.8l0.1,0.4c0,0.1,0,0.1,0,0.2l0,0.4c0,0.2,0,0.5,0.2,0.6c0.4-0.3,0.6-0.8,0.8-1.2l0.2-0.6l0.3-0.8
					c0.2-0.6,0.4-1.1,0.6-1.7c0.4-1.1,0.8-2.3,1.3-3.3c0.9-2.2,1.9-4.2,3-6c2.2-3.7,4.6-6.7,6.9-9c2.3-2.3,4.3-3.9,5.8-4.9
					C680.8,998.1,681.7,997.7,681.9,997.9z"/>
			</g>
		</g>
	</g>
	<g>
		<g>
			<g>
				<path class="st6" d="M643.5,1047c0.3,0,0.6,1.2,1,3.5c0.2,1.1,0.4,2.5,0.6,4.1c0.1,0.8,0.2,1.6,0.3,2.5c0.1,0.4,0.1,0.9,0.2,1.4
					c0.1,0.6,0.1,1.5-0.3,2.2c-0.4,0.7-1.1,1.2-1.9,1.5c-0.9,0.3-1.3,0.3-1.9,0.3c-1.1,0.1-2.3,0.2-3.5,0.2c-1.2,0-2.4,0-3.7-0.1
					c-0.4,0-0.6,0-0.9,0c0.1,0.3,0.3,0.5,0.4,0.9c0.8,1.6,1.7,3.1,2.5,4.6l0.4,0.6l0.6,1c0.4,0.6,0.8,1.3,1.2,1.9
					c0.8,1.2,1.6,2.5,2.4,3.7c-4.1-0.6-7.9-1.2-11.4-1.8c-2.4-0.4-4.5-0.7-6.3-1c-3.5-0.6-5.6-1.1-5.6-1.4c0-0.3,2.2-0.5,5.8-0.5
					c1.8,0,4,0.1,6.4,0.3c1.1,0.1,2.4,0.2,3.6,0.3c0.4,0,0.8,0.1,1.2,0c-0.1-0.2-0.3-0.4-0.4-0.6l-0.2-0.3l-0.1-0.1l-0.3-0.5
					c-0.9-1.5-1.8-3.1-2.7-4.8c-1-2-2-4.1-2.9-6.1c2.2,0.2,4.5,0.5,6.5,0.7c1.2,0.1,2.3,0.2,3.4,0.2c1.1,0,2.2,0,3.2,0
					c0.5,0,1.1-0.1,1.2-0.1c0.2,0,0.4-0.1,0.5-0.3c0.1-0.2,0.1-0.3,0.1-0.6c0-0.5,0-0.9,0-1.4c0-0.9,0-1.7,0-2.5c0-1.6,0-3,0-4.1
					C643.1,1048.3,643.3,1047,643.5,1047z"/>
			</g>
		</g>
	</g>
	<g>
		<g>
			<g>
				<path class="st6" d="M891.4,1048.6c-0.2,0.3-1.5-0.6-4-1.5c-1.2-0.4-2.8-0.8-4.5-1c-0.9-0.1-1.8-0.1-2.8,0c-0.2,0-0.5,0-0.7,0.1
					l-0.5,0.1c-0.2,0-0.5,0.1-0.7,0.1c-0.9,0.2-1.9,0.4-2.9,0.6c0-0.9,0-2.1,0.1-3.1c0-0.5,0-1,0-1.5c0-0.3,0-0.7,0-1
					c0-1.3,0-2.7,0-4.2c-0.1-2.8-0.2-5.8-0.5-8.9c-0.4-4.4-1.2-8.6-2.3-12.2c-1.1-3.7-2.4-6.8-3.7-9.4c-0.7-1.3-1.3-2.4-1.9-3.4
					c-0.3-0.5-0.6-1-0.9-1.4c-0.3-0.4-0.5-0.8-0.7-1.1c-0.2-0.2-0.4-0.4-0.6-0.5c-0.2,0-0.4,0.1-0.5,0.3c-0.2,0.3,0.1,0.4,0.1,0.4
					c0.1-0.2-0.4-0.4-0.2-1c0.1-0.2,0.3-0.5,0.7-0.6c0.4-0.1,0.9,0.1,1.3,0.5c0.4,0.3,0.7,0.7,1.1,1c0.4,0.4,0.7,0.8,1.1,1.3
					c0.8,0.9,1.6,2,2.4,3.3c1.7,2.6,3.3,5.8,4.6,9.7c1.3,3.8,2.2,8.2,2.7,12.8c0.3,3.2,0.4,6.3,0.4,9.2c0,1.5-0.1,2.9-0.1,4.2
					c0,0.3,0,0.6,0,1l0,0.5l0,0.4c0,0.1-0.1,0.3,0,0.3c0.2,0,0.4,0,0.6,0c0.1,0,0.1,0,0.2,0l0.1,0l0.2,0c0.3,0,0.6,0,0.9,0
					c1.1,0,2.2,0.1,3.2,0.3c2,0.4,3.6,1.1,4.9,1.8C890.6,1047,891.6,1048.4,891.4,1048.6z"/>
			</g>
		</g>
	</g>
	<g>
		<g>
			<g>
				<path class="st6" d="M910.2,1051.3c-0.7,0.6-4.1-2.1-9.1-3.3c-5-1.3-9.3-0.6-9.6-1.5c-0.1-0.4,0.9-1.2,2.8-1.7
					c0.9-0.3,2.1-0.4,3.4-0.5c1.3,0,2.7,0.1,4.2,0.5c1.5,0.4,2.8,0.9,3.9,1.6c1.1,0.6,2.1,1.3,2.8,2
					C910,1049.9,910.5,1051,910.2,1051.3z"/>
			</g>
		</g>
	</g>
	<g>
		<g>
			<g>
				<path class="st6" d="M916.1,1102.2c0,0.2-1.1,0.5-3.3,0.7c-1.1,0.1-2.5,0.1-4-0.3c-1.6-0.4-3.4-1.2-4.8-3
					c-0.7-0.9-1.3-2-1.5-3.3c-0.2-1.3,0.1-2.7,0.7-3.8c1.1-2.3,3-4,3.6-5.9c0.3-1,0.4-2,0.1-2.5c-0.3-0.6-1-0.9-2.1-1.1
					c-0.5-0.1-1.2-0.1-1.8,0c-0.7,0-1.4,0.1-2.1,0.1c-1.7,0.1-3.5,0.2-5.2,0.2c-1.5,0.1-3,0.1-4.4,0.2c1.3-2.4,2.6-4.7,3.9-7
					c0.8-1.4,1.6-2.8,2.4-4.2c0.8-1.4,1.5-2.7,2.3-4c0.4-0.6,0.7-1.3,1.1-1.9c0.2-0.3,0.4-0.6,0.5-0.9c0.1-0.3,0.1-0.3,0.2-0.4
					c0-0.1,0-0.3-0.1-0.4c0-0.1-0.2-0.3-0.4-0.4c-0.4-0.3-0.9-0.6-1.5-0.8c-1.2-0.4-2.4-0.6-3.5-0.7c-2.3-0.1-4.4,0.2-6.1,0.5
					c-3.4,0.7-5.5,1.2-5.6,0.9c-0.1-0.3,1.7-1.3,5.1-2.5c1.7-0.6,3.9-1.2,6.6-1.2c1.3,0,2.8,0.1,4.3,0.5c0.8,0.2,1.6,0.5,2.4,1.1
					c0.4,0.3,0.8,0.7,1.1,1.2c0.3,0.5,0.5,1.1,0.5,1.8c0,0.6-0.2,1.2-0.4,1.6c-0.2,0.4-0.4,0.7-0.5,1c-0.3,0.6-0.7,1.3-1,1.9
					c-0.7,1.3-1.4,2.7-2.2,4.1c-1.1,2-2.2,4-3.3,6.2c0.2,0,0.4,0,0.6,0c1.1,0,2.2-0.1,3.3-0.1c0.7,0,1.4-0.1,2.1-0.1
					c0.7,0,1.5,0,2.3,0.1c0.8,0.1,1.7,0.3,2.5,0.8c0.8,0.5,1.6,1.2,2,2.1c0.4,0.9,0.5,1.8,0.5,2.7c0,0.8-0.2,1.6-0.5,2.3
					c-0.5,1.4-1.4,2.6-2.1,3.5c-0.7,0.9-1.4,1.8-1.8,2.6c-0.4,0.8-0.7,1.6-0.6,2.4c0,0.8,0.4,1.5,0.8,2.2c0.9,1.3,2.2,2.2,3.5,2.6
					c1.3,0.5,2.5,0.6,3.6,0.8C914.9,1101.9,916.1,1102,916.1,1102.2z"/>
			</g>
		</g>
	</g>
</g>
<g id="Layer_2">
	<path class="st7" d="M577.7,312.3H399.1c-6.6,0-12-5.4-12-12v-64.5c0-6.6,5.4-12,12-12h178.6c6.6,0,12,5.4,12,12v64.5
		C589.7,306.9,584.3,312.3,577.7,312.3z"/>
	<path class="st3" d="M454.6,522.2c-1.3-1.1-27.4-23.8-21.4-52.7c3.4-16.5,15.5-26.1,21.4-30.7c22.4-17.8,49-15.5,57.6-14.3
		c8.6,1.2,36.4,5.1,49.9,28.5c1.7,2.9,10.1,17.4,6,34.6c-5.6,23.9-30.9,34.2-40.1,37.9C494.9,539,463.2,526,454.6,522.2z"/>
	<path class="st3" d="M329.5,638c-1.7,1.5-6.6,6.2-6.6,12.6c0,5.5,3.6,9.1,9.3,14.8c1.6,1.6,8.4,8.3,19.8,12.6
		c2,0.8,3.8,1.3,4.9,1.6c2.3-6,5.2-14.3,8.2-24.2c7.5-24.8,6.6-30.4,3.8-34c-2.9-3.9-8.1-6.1-12.6-5.5c-9,1.2-12.7,13.2-13.2,14.8
		c-2.5,8.2,0,15.4,1.1,18.1c-0.3-1.1-1.4-5.2-5.5-8.2C334.8,637.9,330.6,638,329.5,638z"/>
	<path class="st3" d="M365.7,576c-1.3,1.5-2.8,3.9-3.3,7.1c-0.9,5.7,1.7,11.7,6,14.3c1,0.6,2.3,1.3,3.8,1.1c2.6-0.4,4.8-3.4,5.5-7.7
		c0.7-0.6,10.3-8.6,8.2-17.6c-0.1-0.3-1.5-5.9-4.9-6.6c-3.7-0.8-8.4,4.4-9.9,9.3c-1.2,3.8-0.3,6.9-1.1,7.1
		C369.5,583.3,368.4,582.2,365.7,576z"/>
	<g>
		<g>
			<g>
				<path class="st6" d="M356.7,677.7c-0.4-0.2,1.6-6.1,4.6-15.7c1.5-4.8,3.1-10.6,4.8-17c0.4-1.6,0.8-3.3,1.2-5
					c0.4-1.7,0.8-3.4,1.1-5.1c0.6-3.4,0.8-7.1-0.2-10.4c-1-3.2-3.5-5.6-6.7-6.2c-1.5-0.3-3.1-0.3-4.7,0c-1.5,0.3-2.9,0.9-4.2,1.7
					c-2.6,1.6-4.7,3.8-6.3,6.2c-1.6,2.3-2.7,4.7-3.4,7c-0.7,2.3-1,4.5-1,6.4c0,1.9,0.3,3.5,0.7,4.9c0.8,2.6,1.8,3.9,1.6,4
					c-0.1,0.1-1.5-0.9-2.7-3.6c-0.6-1.3-1.1-3.1-1.3-5.2c-0.2-2.1,0-4.5,0.6-7.1c0.6-2.6,1.7-5.3,3.4-7.9c1.7-2.6,3.9-5.2,7-7.2
					c3-2,7.1-3.1,11.2-2.2c2,0.4,4.1,1.3,5.6,2.8c1.6,1.5,2.8,3.4,3.5,5.5c0.7,2.1,0.8,4.2,0.8,6.1c0,2-0.3,3.9-0.6,5.8
					c-0.3,1.8-0.8,3.6-1.2,5.3c-0.4,1.7-0.9,3.4-1.4,5c-1.8,6.5-3.8,12.2-5.5,17C359.9,672.3,357.1,677.9,356.7,677.7z"/>
			</g>
		</g>
	</g>
	<g>
		<g>
			<g>
				<path class="st6" d="M354.8,680.6c-0.3,0.4-4.6-2.5-11.9-6.7c-3.6-2.1-8-4.5-12.9-6.9c-2.5-1.2-5.1-2.3-7.9-3.7
					c-1.4-0.7-2.8-1.6-4.2-2.7c-1.3-1.1-2.5-2.6-3.3-4.2c-1.6-3.4-1.6-7.1-0.7-10.3c0.4-1.6,1.2-3.1,2-4.5c0.9-1.3,2-2.5,3.2-3.5
					c0.3-0.3,0.6-0.5,1-0.7c0.3-0.2,0.6-0.4,1-0.6c0.7-0.3,1.4-0.7,2.1-0.9c0.4-0.1,0.7-0.2,1-0.3c0.4-0.1,0.7-0.1,1.1-0.2
					c0.7-0.2,1.4-0.1,2.1-0.2c2.7-0.1,5.2,0.7,7.2,1.6c2,1,3.7,2.2,4.9,3.5c1.2,1.3,2.1,2.5,2.6,3.6c1.1,2.2,1.2,3.6,1,3.6
					c-0.3,0.1-0.7-1.1-2.1-3c-0.7-0.9-1.6-1.9-2.8-3c-1.2-1-2.8-2-4.6-2.7c-1.8-0.7-3.9-1.2-6.2-1c-2.2,0.2-4.5,0.9-6.4,2.5
					c-0.9,0.8-1.7,1.8-2.5,2.8c-0.6,1.1-1.2,2.3-1.6,3.6c-0.7,2.6-0.6,5.5,0.5,8c0.6,1.2,1.4,2.3,2.5,3.2c1.1,0.9,2.3,1.6,3.6,2.3
					c2.6,1.3,5.3,2.6,7.8,3.9c5,2.6,9.3,5.2,12.8,7.6C351.2,676.7,355,680.3,354.8,680.6z"/>
			</g>
		</g>
	</g>
	<g>
		<g>
			<g>
				<path class="st6" d="M372.4,587.1c-0.5,0.1-1.4-3.1-4.1-7.5c-0.7-1.1-1.5-2.3-2.4-3.5c-0.9-1.2-2-2.5-3.1-2.9
					c-0.5-0.2-0.9-0.1-1.3,0.1c-0.4,0.3-0.9,0.8-1.2,1.5c-0.2,0.3-0.3,0.7-0.5,1.1c-0.1,0.4-0.3,0.9-0.3,1.3
					c-0.2,0.9-0.3,1.8-0.4,2.7c-0.3,3.7,0.7,7.4,2.4,10.2c1.7,2.8,3.9,4.8,6.1,6.2c2.2,1.3,4.1,2,5.5,2.5c1.4,0.4,2.2,0.6,2.2,0.9
					c0,0.2-0.9,0.4-2.4,0.4c-1.6-0.1-3.9-0.4-6.4-1.7c-2.6-1.2-5.4-3.4-7.5-6.6c-2.1-3.2-3.4-7.5-3.1-12c0.1-1.1,0.2-2.2,0.5-3.3
					c0.1-0.5,0.3-1,0.4-1.6c0.2-0.5,0.4-1.1,0.7-1.6c0.5-1,1.3-2,2.5-2.7c0.6-0.3,1.3-0.6,2-0.6c0.7,0,1.4,0.1,2,0.4
					c1.2,0.5,1.9,1.3,2.5,2c0.6,0.7,1.1,1.4,1.6,2.1c0.9,1.4,1.7,2.7,2.3,4c1.2,2.5,1.8,4.7,2.1,6.2
					C372.7,586.2,372.6,587,372.4,587.1z"/>
			</g>
		</g>
	</g>
	<g>
		<g>
			<g>
				<path class="st6" d="M374.4,595.6c-0.4-0.3,1.1-3.2,3.6-7.8c1.2-2.3,2.7-5,4.3-8.1c0.8-1.5,1.7-3.2,2.3-4.7
					c0.6-1.6,1-3.3,0.4-4.4c-0.5-1.1-1.8-1.8-3.3-1.9c-1.4-0.1-2.8,0.6-4,1.6c-1.2,0.9-2.1,2.2-3,3.3c-0.8,1.2-1.5,2.4-2,3.5
					c-1,2.3-1.5,4.3-1.8,5.7c-0.3,1.4-0.5,2.2-0.7,2.2c-0.2,0-0.5-0.8-0.5-2.3c-0.1-1.5,0.1-3.8,1-6.4c0.4-1.3,1-2.7,1.9-4.1
					c0.8-1.4,1.8-2.9,3.3-4.2c0.7-0.7,1.6-1.3,2.6-1.7c1-0.5,2.2-0.8,3.3-0.7c1.2,0,2.4,0.2,3.5,0.9c1.1,0.6,2.2,1.6,2.7,2.9
					c0.6,1.3,0.6,2.6,0.5,3.8c-0.2,1.2-0.5,2.2-0.9,3.2c-0.8,1.9-1.8,3.4-2.6,5c-1.8,3-3.5,5.7-5,7.9
					C377,593.4,374.8,595.9,374.4,595.6z"/>
			</g>
		</g>
	</g>
	<g>
		<g>
			<g>
				<path class="st6" d="M487.4,529.9c0-0.1,1.4-0.1,4.1-0.1c2.7,0,6.6,0.1,11.6-0.2c2.5-0.2,5.3-0.5,8.3-0.9c3-0.5,6.2-1.2,9.6-2.2
					c6.8-2,14.3-5.3,21.4-10.6c3.6-2.6,7.1-5.7,10.5-9.2c1.7-1.8,3.3-3.6,4.8-5.6c1.6-2,3.2-4.1,4.6-6.2c2.9-4.3,5.2-9.1,5.8-14.6
					c0.7-5.4-0.1-11-2-16.5c-1-2.7-2.3-5.4-3.7-8c-1.4-2.7-3-5.2-4.9-7.6c-3.7-4.8-8.4-9-13.7-12.5c-5.2-3.6-11.1-6.4-17.4-8.2
					c-6.3-1.9-12.9-2.9-19.7-3.2c-6.7-0.4-13.5,0.1-19.9,1.4c-6.5,1.3-12.7,3.3-18.5,5.9c-2.9,1.3-5.8,2.7-8.5,4.2
					c-2.8,1.5-5.5,3.1-8.2,4.7c-5.3,3.2-10.1,6.8-14,11.1c-1.9,2.1-3.6,4.4-5.1,6.9c-1.5,2.4-2.8,4.9-3.8,7.5
					c-2.1,5.1-3.2,10.4-3.2,15.5c0,5.1,1,10.1,2.8,14.5c1.8,4.4,4.4,8.3,7.3,11.6c5.9,6.7,12.4,11.6,18.8,14.6
					c3.2,1.5,6.3,2.7,9.2,3.5c2.9,0.9,5.6,1.5,8.1,2c4.9,0.9,8.8,1.3,11.5,1.7c2.6,0.3,4,0.5,4,0.6c0,0.1-1.4,0.1-4.1,0
					c-2.7-0.1-6.6-0.3-11.6-1.1c-2.5-0.4-5.3-0.9-8.3-1.7c-3-0.8-6.2-1.9-9.5-3.4c-6.7-2.9-13.6-7.9-19.8-14.7
					c-3.1-3.4-5.8-7.5-7.9-12.2c-2-4.7-3.2-10-3.2-15.5c0-5.5,1.1-11.2,3.3-16.6c1.1-2.7,2.4-5.3,3.9-7.9c1.5-2.6,3.3-5,5.4-7.3
					c4.1-4.6,9.2-8.4,14.6-11.7c2.7-1.7,5.4-3.2,8.3-4.8c2.8-1.6,5.8-3,8.8-4.4c3-1.4,6.1-2.5,9.3-3.6c1.6-0.5,3.2-1,4.9-1.4
					c0.8-0.2,1.6-0.4,2.5-0.6l2.5-0.5c6.7-1.4,13.7-1.9,20.7-1.5c7,0.4,13.9,1.4,20.5,3.4c6.6,2,12.8,5,18.3,8.7
					c5.5,3.7,10.5,8.1,14.4,13.2c2,2.5,3.7,5.3,5.1,8c1.5,2.7,2.8,5.6,3.9,8.5c2.1,5.8,2.9,12,2,17.9c-0.4,2.9-1.2,5.8-2.3,8.4
					c-1.1,2.6-2.6,5.1-4.1,7.3c-1.5,2.2-3.2,4.3-4.8,6.3c-1.6,2-3.3,4-5.1,5.8c-3.5,3.6-7.2,6.7-10.9,9.3
					c-7.5,5.3-15.3,8.5-22.3,10.5c-3.5,1-6.8,1.5-9.9,2c-3.1,0.4-5.9,0.6-8.5,0.6c-5.1,0.1-9-0.2-11.7-0.4
					C488.7,530.2,487.3,530,487.4,529.9z"/>
			</g>
		</g>
	</g>
	<g>
		<g>
			<g>
				<path class="st6" d="M460.3,489.7c0.1-0.2,0.6-0.1,1.3-0.1c0.7,0,1.8-0.1,2.9-0.7c1.1-0.6,2.2-1.6,2.5-2.9
					c0.1-0.6,0.1-1.3-0.2-2c-0.3-0.7-0.8-1.3-1.5-1.8c-0.7-0.5-1.5-0.8-2.2-0.9c-0.7-0.1-1.4,0.1-2,0.4c-1.2,0.7-1.9,2-2.1,3.2
					c-0.2,1.2-0.1,2.2,0.2,2.9c0.2,0.7,0.4,1.1,0.3,1.3c-0.1,0.1-0.7,0-1.4-0.6c-0.7-0.7-1.3-2-1.4-3.8c0-0.9,0.2-1.8,0.6-2.8
					c0.4-1,1.1-2,2.2-2.7c1.1-0.7,2.5-1.2,3.9-1.1c1.4,0.1,2.7,0.6,3.9,1.5c1.1,0.9,2,2,2.5,3.3c0.5,1.3,0.5,2.8,0.1,4
					c-0.4,1.2-1.2,2.2-2,2.9c-0.8,0.7-1.7,1.1-2.6,1.3c-1.7,0.5-3.2,0.2-4-0.3C460.5,490.3,460.2,489.8,460.3,489.7z"/>
			</g>
		</g>
	</g>
	<g>
		<g>
			<g>
				<path class="st6" d="M496.5,485.6c0.1-0.2,0.6-0.1,1.4,0c0.7,0.1,1.8,0.1,2.9-0.4c1.1-0.5,2.2-1.4,2.5-2.8
					c0.3-1.3-0.2-3.2-1.4-4.2c-1.1-1-2.9-1-4.2-0.3c-0.7,0.3-1.2,0.8-1.6,1.3c-0.2,0.3-0.3,0.5-0.4,0.8c-0.1,0.3-0.2,0.5-0.2,0.8
					c-0.1,1.1,0.3,2.1,0.7,2.6c0.4,0.5,0.9,0.8,0.8,1c0,0.2-0.6,0.5-1.6,0c-1-0.4-2-1.7-2.3-3.6c0-0.5-0.1-1,0-1.5
					c0.1-0.5,0.3-1.1,0.5-1.6c0.5-1,1.4-1.9,2.4-2.5c1.1-0.6,2.3-1,3.7-1c1.4,0,2.9,0.5,4.1,1.5c2.3,2,2.9,5,2.2,7.5
					c-0.4,1.2-1.2,2.3-2,2.9c-0.9,0.7-1.8,1-2.7,1.2c-1.8,0.3-3.2-0.1-4-0.6C496.6,486.3,496.4,485.8,496.5,485.6z"/>
			</g>
		</g>
	</g>
	<g>
		<g>
			<g>
				<path class="st6" d="M535.6,482.3c0-0.5,1.9-0.6,3.8-2.4c0.9-0.9,1.7-2.2,1.7-3.6c0-1.4-0.8-3.1-2.2-3.9
					c-0.7-0.4-1.4-0.6-2.1-0.5c-0.7,0.1-1.4,0.4-2,0.8c-1.2,0.9-1.7,2.2-1.6,3.3c0.1,1.1,0.7,2.1,1.1,2.9c0.4,0.7,0.5,1.2,0.4,1.4
					c-0.2,0.1-0.6,0-1.3-0.5c-0.7-0.5-1.8-1.4-2.4-3.2c-0.6-1.8,0-4.4,1.8-6c0.9-0.8,2.1-1.6,3.5-1.8c1.5-0.2,3,0.1,4.2,0.9
					c2.5,1.6,3.7,4.3,3.5,6.8c-0.3,2.6-1.8,4.3-3.2,5.2c-1.5,0.9-2.9,1.2-3.8,1.1C536.1,482.8,535.6,482.5,535.6,482.3z"/>
			</g>
		</g>
	</g>
	<g>
		<g>
			<g>
				<path class="st6" d="M573.1,452.7c-0.5,0.1-1.5-2.2-3.5-5.8c-0.5-0.9-1-1.9-1.7-2.9c-0.6-1-1.3-2.1-2-3.2
					c-1.5-2.2-3.3-4.6-5.3-6.9c-2.1-2.3-4.2-4.4-6.2-6.1c-1-0.9-2-1.7-2.9-2.4c-0.9-0.8-1.8-1.4-2.7-2c-3.3-2.4-5.5-3.7-5.3-4.2
					c0.2-0.4,2.8,0.2,6.5,2.2c0.9,0.5,2,1.1,3,1.8c1.1,0.7,2.1,1.5,3.3,2.3c2.2,1.8,4.5,3.9,6.7,6.3c2.2,2.5,4,5,5.4,7.4
					c0.7,1.2,1.4,2.4,1.9,3.5c0.6,1.1,1,2.2,1.4,3.2C573.2,450,573.5,452.6,573.1,452.7z"/>
			</g>
		</g>
	</g>
	<g>
		<g>
			<g>
				<path class="st6" d="M582.5,452.6c-0.5,0-1-2.2-2-5.7c-0.3-0.9-0.5-1.8-0.9-2.8c-0.3-1-0.8-2.1-1.2-3.2c-0.9-2.2-2-4.5-3.4-6.9
					c-1.4-2.4-2.9-4.5-4.3-6.4c-0.7-0.9-1.4-1.8-2.1-2.6c-0.7-0.8-1.4-1.5-2-2.2c-2.5-2.6-4.2-4.2-3.9-4.6c0.2-0.3,2.4,0.5,5.5,2.9
					c0.8,0.6,1.6,1.2,2.4,2c0.8,0.7,1.7,1.6,2.5,2.6c1.7,1.9,3.3,4.1,4.8,6.7c1.5,2.5,2.6,5.1,3.4,7.5c0.4,1.2,0.7,2.4,1,3.5
					c0.3,1.1,0.4,2.1,0.6,3.1C583.3,450.2,582.9,452.6,582.5,452.6z"/>
			</g>
		</g>
	</g>
	<g>
		<g>
			<g>
				
					<ellipse transform="matrix(0.9663 0.2575 -0.2575 0.9663 158.9556 -68.3479)" class="st6" cx="340.4" cy="572.7" rx="4" ry="1.6"/>
			</g>
		</g>
	</g>
	<g>
		<g>
			<g>
				
					<ellipse transform="matrix(0.7612 0.6485 -0.6485 0.7612 445.8336 -90.7011)" class="st6" cx="346.1" cy="560.1" rx="3.4" ry="1.6"/>
			</g>
		</g>
	</g>
	<g>
		<g>
			<g>
				<path class="st6" d="M363.7,546.8c0.8,0.4,0.1,3.7-1.2,7.7c-1.3,3.9-2.7,7.1-3.6,6.9c-0.9-0.2-0.9-3.8,0.5-7.9
					C360.7,549.3,362.9,546.4,363.7,546.8z"/>
			</g>
		</g>
	</g>
	<g>
		<g>
			<g>
				<path class="st6" d="M298.6,688.1c-0.8-0.4,0.4-4.2,3.2-8c2.8-3.8,6.1-6,6.7-5.4c0.6,0.6-1.4,3.7-4.1,7.3
					C301.7,685.7,299.4,688.6,298.6,688.1z"/>
			</g>
		</g>
	</g>
	<g>
		<g>
			<g>
				<path class="st6" d="M315.8,692.3c-0.4,0.1-1-0.6-1.4-1.8c-0.4-1.2-0.5-3-0.1-4.9c0.4-1.9,1.2-3.4,2.1-4.4c0.8-1,1.6-1.3,2-1.1
					c0.7,0.6-0.2,3.1-0.9,6.1C316.8,689.5,316.7,692.1,315.8,692.3z"/>
			</g>
		</g>
	</g>
	<g>
		<g>
			<g>
				<path class="st6" d="M331.4,695.8c-0.9,0.2-2.3-3-2.6-7.2c-0.3-4.2,0.8-7.6,1.6-7.5c0.9,0.1,1.3,3.3,1.6,7.3
					C332.3,692.3,332.3,695.6,331.4,695.8z"/>
			</g>
		</g>
	</g>
	<g>
		<g>
			<g>
				<path class="st6" d="M372.7,304.1c-1-0.1,0.5-17.3-0.1-38.6c-0.6-21.2-3.1-38.3-2.2-38.5c0.8-0.2,4.8,16.9,5.4,38.4
					C376.5,286.9,373.5,304.2,372.7,304.1z"/>
			</g>
		</g>
	</g>
	<g>
		<g>
			<g>
				<path class="st6" d="M593.6,248.5c-0.2,0-0.7-3.4-1.3-9.6c-0.2-1.6-0.3-3.3-0.5-5.2c-0.2-1.9-0.2-4.1-1.1-5.5
					c-1-1.5-3.2-1.8-5.6-1.7c-2.5,0.2-5.1,0.4-7.9,0.6c-22.2,1.8-53,3.4-87.1,3.2c-34.1-0.2-64.8-2-87.1-4.1c-5.6-0.5-10.6-1-15-1.5
					c-4.3-0.5-8.1-0.3-11,0.6c-1.4,0.4-2.6,1-3.5,1.7c-0.9,0.7-1.5,1.4-1.8,2.1c-0.3,0.7-0.5,1.3-0.6,1.7c-0.1,0.4-0.2,0.6-0.2,0.6
					s-0.1-0.2-0.1-0.7c0-0.4,0.1-1.1,0.3-1.9c0.3-0.8,0.9-1.8,1.8-2.6c1-0.8,2.2-1.6,3.8-2.1c3-1.1,7-1.6,11.5-1.2
					c4.4,0.3,9.4,0.7,15,1c22.2,1.4,52.9,2.9,86.9,3.1c34,0.2,64.7-1,86.9-2.2c2.8-0.1,5.5-0.3,8-0.4c1.3,0,2.6,0,3.9,0.4
					c1.3,0.4,2.6,1.2,3.3,2.3c0.7,1.2,0.9,2.4,1,3.4c0.1,1.1,0.1,2,0.2,3c0.1,1.9,0.2,3.6,0.2,5.2
					C593.8,245,593.8,248.4,593.6,248.5z"/>
			</g>
		</g>
	</g>
	<g>
		<g>
			<g>
				<path class="st6" d="M592.5,246.1c0.1,0,0.3,0.9,0.5,2.7c0.2,1.8,0.5,4.4,0.7,7.8c0.4,6.8,0.6,16.6-0.7,28.8
					c-0.3,3-0.7,6.2-1.2,9.5c-0.3,1.6-0.4,3.3-1.1,5.2c-0.3,0.9-0.9,1.9-1.7,2.7c-0.8,0.8-1.9,1.2-2.8,1.5c-2,0.6-3.7,0.6-5.5,0.9
					c-1.8,0.2-3.7,0.5-5.6,0.8c-3.8,0.5-7.6,1-11.6,1.5c-15.9,1.9-33.5,3.6-51.9,4.7c-36.9,2.3-70.4,1.9-94.6,0.8
					c-12.1-0.6-21.9-1.3-28.6-1.9c-6.7-0.7-10.5-1.1-10.4-1.3c0-0.2,3.8-0.2,10.5,0.1c6.8,0.2,16.5,0.6,28.6,0.9
					c24.2,0.5,57.6,0.5,94.4-1.8c18.4-1.1,35.9-2.7,51.8-4.4c4-0.4,7.8-0.8,11.6-1.3c1.9-0.2,3.7-0.5,5.6-0.7
					c1.8-0.2,3.7-0.4,5.2-0.8c1.5-0.4,2.3-1.2,2.9-2.5c0.5-1.3,0.7-3.1,1-4.7c0.6-3.2,1-6.3,1.4-9.3c1.5-11.9,1.7-21.7,1.7-28.5
					C592.4,249.8,592.2,246.1,592.5,246.1z"/>
			</g>
		</g>
	</g>
	<g>
		<g>
			<g>
				<path class="st6" d="M547.5,246.5c0,0.1-0.5,0.3-1.5,0.7c-0.5,0.2-1.2,0.4-1.9,0.5c-0.8,0.2-1.7,0.4-2.7,0.6
					c-4.1,0.8-10.1,1.2-17.5,1c-7.4-0.1-16.1-0.9-25.7-0.7c-4.8,0.1-9.8,0.7-14.9,1.5c-5.2,0.8-10.5,1.9-16.1,2.8
					c-5.6,0.9-11.1,1.5-16.4,1.7c-5.3,0.2-10.5,0.2-15.3,0.1c-9.7-0.3-18.4-0.6-25.8-0.9c-7.3-0.3-13.3-0.6-17.4-0.9
					s-6.4-0.5-6.4-0.8s2.3-0.4,6.4-0.5c4.1-0.1,10.1-0.2,17.4-0.2c7.3,0,16.1,0.1,25.8,0.2c9.7,0.1,20.3-0.1,31.2-2
					c5.5-0.9,10.9-2,16.1-2.8c5.3-0.8,10.4-1.4,15.4-1.4c9.9-0.1,18.6,1,25.8,1.4c7.3,0.5,13.2,0.4,17.2,0c1-0.1,1.9-0.2,2.7-0.3
					c0.8-0.1,1.4-0.2,2-0.2C546.9,246.4,547.5,246.4,547.5,246.5z"/>
			</g>
		</g>
	</g>
	<g>
		<g>
			<g>
				<path class="st6" d="M535.2,267.8c0,0.4-8.6-0.1-22.3-1.3c-3.4-0.3-7.1-0.6-11.1-0.6c-4,0-8.2,0.2-12.5,1.2
					c-2.1,0.5-4.2,1.2-6.4,2.1c-1.1,0.5-2.2,0.9-3.4,1.4c-1.2,0.4-2.5,0.8-3.8,1c-5.2,0.9-10.5,0.3-15.7-0.3
					c-6.8-0.8-13.4-1.4-19.5-1.2c-6.2,0.2-11.9,1.5-16.7,3.9l-3,1.5l0.9-3.2c0.1-0.4,0.1-0.6,0-0.8c-0.1-0.2-0.6-0.5-1-0.7
					c-1-0.4-2.2-0.6-3.4-0.6c-0.6,0-1.2,0.1-1.7,0.1c-0.6,0.1-1.3,0.2-1.9,0.3c-1.2,0.2-2.5,0.3-3.6,0.4c-4.7,0.4-8.9,0.2-12.3-0.2
					c-6.8-0.9-10.4-2.4-10.3-2.6c0.1-0.3,3.8,0.6,10.5,0.9c3.3,0.1,7.3,0.1,11.9-0.4c1.1-0.1,2.3-0.3,3.5-0.5
					c0.6-0.1,1.2-0.2,1.8-0.4c0.7-0.1,1.4-0.2,2.1-0.2c1.4,0,2.9,0.1,4.5,0.7c0.8,0.3,1.6,0.7,2.3,1.6c0.1,0.2,0.3,0.5,0.4,0.8
					c0.1,0.3,0.2,0.6,0.2,0.8c0,0.3,0,0.6,0,0.9c0,0.3-0.1,0.5-0.2,0.8l-2-1.7c5.1-2.8,11.4-4.2,17.8-4.5c6.5-0.3,13.2,0.3,20.1,1.1
					c5.2,0.6,10.2,1.2,14.8,0.4c2.3-0.4,4.4-1.2,6.6-2.1c2.2-0.9,4.6-1.7,6.9-2.2c4.6-1,9.1-1.1,13.2-1c4.1,0.2,7.9,0.6,11.3,1.1
					C526.9,266,535.3,267.4,535.2,267.8z"/>
			</g>
		</g>
	</g>
	<g>
		<g>
			<g>
				<path class="st6" d="M544.6,288.3c0.1,0.2-1.8,1.1-5.5,2.2c-3.6,1.1-9.1,2.4-16,3c-3.5,0.3-7.3,0.4-11.4,0.1
					c-2.1-0.1-4.2-0.3-6.4-0.6c-2.2-0.3-4.4-0.6-6.7-0.9c-2.3-0.3-4.6-0.4-6.9-0.4c-2.3,0.1-4.6,0.4-6.7,1.4c-0.5,0.3-1,0.5-1.5,0.8
					c-0.1,0.1-0.3,0.2-0.4,0.3l-0.1,0.1c0,0,0,0.1,0.1,0.1c0,0.1,0.1,0.1,0.2,0.2c0.1,0.1,0.1,0.1,0.2,0.2c0,0,0.1,0.1,0.1,0.1
					c0,0,0.1,0,0.2,0.1c0.9,0.3,2,0.4,2.9,0.1c0.5-0.1,0.9-0.4,1.2-0.6c0.3-0.3,0.5-0.6,0.7-1l2.3,1.9c-0.8,0.5-1.7,0.9-2.7,1.1
					c-0.9,0.2-1.9,0.3-2.8,0.3c-1.9,0-3.7-0.4-5.4-1.1c-3.5-1.2-6.3-3.3-9.2-4.8c-1.8-0.9-3.6-1.6-5.4-1.7c-1.7-0.1-3.5,0.4-4.9,1.3
					c-0.7,0.5-1.3,1-1.6,1.6c-0.1,0.2-0.2,0.3-0.2,0.5c-0.1,0.2-0.2,0.4-0.1,0.4c0,0.1-0.1,0.3,0,0.4c0.1,0.1,0.2,0.2,0.3,0.2
					c0.3,0.1,0.6,0.2,0.9,0.3c0.7,0.1,1.3-0.1,1.8-0.4l0.3,2.8c-6.1-2.4-12-4.4-17.7-5.2c-2.8-0.4-5.6-0.4-8.2,0.1
					c-0.6,0.1-1.3,0.3-1.9,0.4c-0.6,0.2-1.2,0.4-1.8,0.6c-0.6,0.2-1.1,0.5-1.7,0.8c-0.3,0.1-0.5,0.3-0.8,0.5
					c-0.4,0.3-0.9,0.5-1.3,0.8l-0.7,0.4c-0.1,0-0.1,0.1-0.2,0l-0.1-0.1l-0.3-0.3c-0.4-0.3-0.7-0.7-1.1-1c-0.1-0.1-0.2-0.2-0.3-0.2
					l-0.2-0.1l-0.3-0.3c-0.2-0.2-0.4-0.4-0.7-0.5c-1-0.6-2-1.1-3-1.4c-2.1-0.7-4.2-0.9-6.2-0.8c-2,0.1-3.8,0.6-5.4,1.4
					c-0.4,0.2-0.8,0.4-1.1,0.6c-0.4,0.2-0.7,0.4-1,0.7c-0.9,0.6-1.7,1.6-2.5,2.1c-0.3-0.6-0.6-1.1-1-1.7c-0.2-0.2-0.3-0.4-0.5-0.6
					c-0.2-0.2-0.3-0.3-0.4-0.4c-0.5-0.5-1.1-0.9-1.7-1.1c-1.2-0.5-2.3-0.7-3.2-0.7c-1.8,0-2.8,0.6-2.8,0.5c-0.1-0.1,0.7-0.9,2.8-1.3
					c1-0.1,2.3-0.1,3.7,0.4c0.7,0.3,1.4,0.6,2.2,1.2c0.2,0.1,0.4,0.3,0.5,0.4l0.3,0.3c0.2,0.2,0.4,0.4,0.5,0.7c0,0.1,0.1,0,0.1,0
					l0.1-0.1l0.3-0.3c0.1-0.1,0.2-0.2,0.3-0.3l0.4-0.3c0.3-0.3,0.7-0.6,1.1-0.8c0.4-0.3,0.8-0.5,1.2-0.7c1.7-0.9,3.8-1.6,6-1.8
					c2.2-0.2,4.7-0.1,7.1,0.7c1.2,0.3,2.4,0.9,3.6,1.6c0.3,0.2,0.6,0.4,0.8,0.6l0.4,0.3l0.2,0.2c0.1,0,0.1,0.1,0.1,0.1l0.3,0.3
					c0.1,0,0.1,0.1,0.2,0.1l0.2-0.1l0.4-0.2c0.2-0.1,0.6-0.4,0.9-0.5c0.6-0.3,1.3-0.6,1.9-0.9c0.7-0.2,1.4-0.5,2.1-0.7
					c0.7-0.2,1.4-0.3,2.1-0.5c2.9-0.6,6-0.6,9.1-0.3c6.2,0.7,12.3,2.7,18.5,5.1l2.8,1.1l-2.5,1.7c-1.2,0.8-2.6,1.1-3.9,0.9
					c-0.7-0.1-1.3-0.2-2-0.5c-0.8-0.4-1.5-0.9-2-1.5c-0.1-0.1-0.2-0.2-0.2-0.2l0-0.3l0-0.6c0-0.4,0.1-0.9,0.2-1.3
					c0.1-0.5,0.2-0.7,0.3-1.1c0.1-0.3,0.3-0.6,0.4-0.9c0.7-1.1,1.6-2,2.6-2.7c2.1-1.3,4.5-2,6.9-1.8c2.4,0.2,4.6,1.1,6.6,2.1
					c3.2,1.6,5.9,3.6,8.8,4.6c2.9,1.1,5.9,1.3,8.1-0.1l4.3-2.7l-1.9,4.6c-0.4,0.9-0.9,1.7-1.7,2.3c-0.7,0.6-1.5,1-2.4,1.2
					c-1.7,0.5-3.4,0.4-5-0.2c-0.2-0.1-0.4-0.2-0.7-0.3c-0.2-0.1-0.5-0.3-0.7-0.5c-0.5-0.3-0.8-0.7-1.2-1.1c-0.3-0.4-0.5-0.9-0.8-1.3
					c-0.1-0.2-0.3-0.5-0.3-0.7l0.5-0.5l1.1-1.1c0.2-0.2,0.4-0.3,0.6-0.5l0.7-0.5c0.6-0.4,1.3-0.7,1.9-1c2.6-1.2,5.3-1.5,7.9-1.6
					c2.6-0.1,5,0.2,7.3,0.5c2.3,0.3,4.6,0.7,6.7,1.1c2.1,0.3,4.2,0.6,6.2,0.8c4,0.3,7.7,0.4,11.1,0.3c6.8-0.3,12.2-1.3,15.8-2
					C542.5,288.6,544.5,288.1,544.6,288.3z"/>
			</g>
		</g>
	</g>
	<path class="st8" d="M719.1,57.9c-7.6,16.4-6.7,27.4-4.1,34.6c5.3,15,17.7,17.4,23.1,32.9c4.8,14,3.3,26.3,3.3,26.3
		c-1.3,10.3-5.1,15.6-2.5,18.9c2.7,3.4,10.1-3.2,22.2-1.6c6.3,0.8,12.3,3.3,12.3,3.3c5.4,2.2,6.2,3.6,8.2,3.3
		c5.3-0.9,5-11.2,10.7-18.9c4-5.5,7.4-3.7,24.7-11.5c17.5-7.9,19.2-11.6,19.8-13.2c2.4-6.9-1.9-15.1-6.6-19.8
		c-7-6.9-13.3-4.4-22.2-8.2c-18.3-7.8-12.5-27.2-32.9-43.6c-3-2.4-18.4-14.8-37-11.5C729.2,50.3,722.7,54.8,719.1,57.9z"/>
	<g>
		<g>
			<g>
				<path class="st6" d="M732.5,156.7c-0.2-0.1,0.1-1.6,0.4-4.3c0.3-2.7,0.4-6.6-0.7-11.3c-0.6-2.3-1.4-4.8-2.7-7.2
					c-1.3-2.5-3.1-4.8-5.2-7.2c-2.2-2.3-4.7-4.7-7.1-7.4c-2.4-2.8-4.7-5.8-6.6-9.2c-1.8-3.4-3.3-6.9-4.3-10.5
					c-0.3-0.9-0.4-1.8-0.7-2.6c-0.1-0.4-0.2-0.9-0.3-1.3c-0.1-0.4-0.1-0.9-0.2-1.3c-0.1-0.9-0.3-1.7-0.4-2.6
					c-0.1-0.9-0.1-1.7-0.2-2.6c-0.5-6.7,0.7-12.8,2.5-17.6c0.4-1.2,1-2.3,1.5-3.3c0.3-0.5,0.5-1,0.8-1.5c0.3-0.5,0.6-0.9,0.8-1.3
					c1-1.7,2.1-3.1,3.1-4.1c1-1,2-1.6,2.7-1.9c0.7-0.3,1.1-0.3,1.2-0.2c0.1,0.2-1.3,0.8-3,2.9c-0.8,1-1.7,2.4-2.5,4.2
					c-0.2,0.4-0.4,0.9-0.7,1.3c-0.2,0.5-0.4,1-0.6,1.5c-0.4,1-0.9,2-1.2,3.2c-1.4,4.6-2.3,10.3-1.7,16.6c0.1,0.8,0.2,1.6,0.3,2.4
					c0.1,0.8,0.3,1.6,0.4,2.4c0.1,0.4,0.1,0.8,0.2,1.2c0.1,0.4,0.2,0.8,0.3,1.2c0.2,0.8,0.4,1.7,0.7,2.5c1,3.3,2.4,6.6,4.1,9.8
					c1.7,3.2,3.9,6.1,6.1,8.7c2.3,2.6,4.8,5,7,7.5c2.2,2.5,4.1,5.2,5.4,8c1.3,2.7,2.1,5.5,2.6,8c0.9,5.1,0.4,9.2-0.3,12
					C733.4,155.4,732.6,156.8,732.5,156.7z"/>
			</g>
		</g>
	</g>
	<g>
		<g>
			<g>
				<path class="st6" d="M821.8,105.6c0,0.1-0.4,0.3-1.1,0.5c-0.8,0.3-1.9,0.4-3.5,0.5c-0.8,0-1.6,0-2.6-0.1c-0.5-0.1-1-0.1-1.5-0.2
					c-0.5-0.1-1-0.2-1.5-0.4c-2.1-0.6-4.4-1.5-6.8-3c-4.7-2.9-9.5-7.5-13.3-13.6c-3.9-6-7-13.1-11.1-19.9c-2.1-3.4-4.3-6.5-6.9-9
					c-2.6-2.6-5.5-4.6-8.5-6.2c-6-3.1-12.1-4.3-17.3-4.4c-5.1-0.1-9.3,0.8-12.1,1.6c-0.7,0.2-1.3,0.4-1.9,0.5
					c-0.5,0.2-1,0.3-1.4,0.5c-0.7,0.2-1.2,0.3-1.2,0.2s0.3-0.4,0.9-0.8c0.3-0.2,0.8-0.5,1.3-0.8c0.5-0.3,1.1-0.5,1.8-0.8
					c2.8-1.2,7-2.5,12.5-2.7c5.4-0.2,12.1,0.8,18.6,4c3.3,1.6,6.5,3.8,9.3,6.6c2.9,2.8,5.3,6.1,7.5,9.6c4.3,7.1,7.3,14.2,10.9,20
					c3.5,5.9,7.8,10.4,12,13.3c2.1,1.4,4.2,2.5,6.1,3.2c0.5,0.2,0.9,0.3,1.4,0.5c0.5,0.1,0.9,0.2,1.3,0.3c0.8,0.2,1.6,0.3,2.3,0.4
					c1.4,0.1,2.6,0.2,3.3,0.1C821.3,105.4,821.7,105.5,821.8,105.6z"/>
			</g>
		</g>
	</g>
	<g>
		<g>
			<g>
				<path class="st6" d="M758.8,171.6c0.2,0.4-1.3,1.5-3.9,2.7c-1.3,0.6-2.9,1.3-4.8,1.8c-1.9,0.5-4.1,0.9-6.4,0.8
					c-4.8-0.2-8.8-2.5-10.7-5c-1-1.2-1.5-2.4-1.6-3.3c-0.2-0.8-0.1-1.3,0.1-1.4c0.5-0.2,1.2,1.5,3.2,3.1c1.9,1.6,5.3,3.2,9.1,3.4
					c3.9,0.1,7.6-0.9,10.3-1.5C756.8,171.5,758.6,171.2,758.8,171.6z"/>
			</g>
		</g>
	</g>
	<g>
		<g>
			<g>
				<path class="st6" d="M827.4,125.5c-0.2,0.2-1.1-0.6-3.2-0.9c-2.1-0.3-5.1,0.5-8.7,2c-7.4,3.1-17.6,7.1-28.5,12.5
					c-5.4,2.7-10.4,5.5-14.9,8.3c-4.4,2.8-8.2,5.6-11.3,8c-6.2,5-9.5,8.6-9.9,8.2c-0.3-0.2,2.5-4.4,8.4-10c3-2.7,6.7-5.8,11.2-8.8
					c4.4-3,9.5-6,15-8.7c11-5.5,21.5-9.2,29.1-11.8c3.8-1.3,7.4-1.8,9.8-1.1c1.2,0.3,2,0.9,2.4,1.3
					C827.3,125.1,827.5,125.4,827.4,125.5z"/>
			</g>
		</g>
	</g>
	<g>
		<g>
			<g>
				<path class="st6" d="M818.5,145.4c-0.1-0.2,0.2-0.7,1-1.6c0.8-0.8,2.1-1.9,3.8-3c1.7-1.1,3.7-2.3,5.9-3.7
					c1.1-0.7,2.2-1.4,3.2-2.3c1-0.8,2-1.8,2.7-2.9c1.7-2.2,2.1-4.6,2-6.9c-0.2-2.3-1-4.4-1.9-5.9c-0.9-1.6-2-2.6-2.8-3.3
					c-0.8-0.7-1.3-1.1-1.2-1.3c0-0.1,0.2-0.1,0.5-0.1c0.3,0,0.8,0.1,1.3,0.3c1.1,0.4,2.7,1.3,4,3c1.4,1.6,2.7,4,3.1,6.9
					c0.2,1.5,0.1,3-0.2,4.6c-0.1,0.4-0.2,0.8-0.3,1.2c-0.2,0.4-0.3,0.8-0.5,1.2c-0.4,0.7-0.8,1.5-1.3,2.2c-1,1.4-2.2,2.5-3.4,3.5
					c-1.2,1-2.4,1.7-3.6,2.4c-2.4,1.3-4.5,2.3-6.3,3.1c-1.8,0.8-3.2,1.5-4.2,2C819.2,145.3,818.6,145.6,818.5,145.4z"/>
			</g>
		</g>
	</g>
	<g>
		<g>
			<g>
				<path class="st6" d="M785.3,155.4c0.1-0.1,0.9,0.2,1.8,1.3c0.9,1.1,1.9,3.1,2.1,5.7c0.3,2.6-0.4,5.8-2,8.8
					c-0.8,1.5-1.8,2.9-3,4.3c-0.6,0.7-1.3,1.4-2.1,2.1c-0.8,0.6-1.7,1.2-2.9,1.6c-1.1,0.4-2.5,0.4-3.7-0.1c-1.2-0.5-2.1-1.5-2.7-2.4
					c-0.6-0.9-0.9-1.9-1.1-2.8c-0.2-0.9-0.3-1.7-0.4-2.6c-0.3-3.4,0.2-6.4,1-8.8c0.8-2.4,1.9-4.1,2.8-5.2c0.9-1.1,1.5-1.5,1.7-1.4
					c0.4,0.3-1.3,2.8-2.3,7.2c-0.5,2.2-0.7,4.9-0.3,7.8c0.2,1.4,0.6,3,1.2,4.1c0.3,0.5,0.7,0.9,1.2,1c0.4,0.2,0.9,0.2,1.5,0
					c0.6-0.2,1.2-0.6,1.8-1c0.6-0.5,1.1-1,1.7-1.6c1.1-1.2,2-2.5,2.8-3.7c1.5-2.5,2.3-5.1,2.3-7.2c0.1-2.2-0.4-4-0.9-5.1
					C785.5,156.2,785.1,155.6,785.3,155.4z"/>
			</g>
		</g>
	</g>
	<g>
		<g>
			<g>
				
					<ellipse transform="matrix(-0.9611 0.2763 -0.2763 -0.9611 1426.0752 132.2493)" class="st6" cx="703.7" cy="166.6" rx="12.2" ry="1.6"/>
			</g>
		</g>
	</g>
	<g>
		<g>
			<g>
				
					<ellipse transform="matrix(-0.7544 0.6564 -0.6564 -0.7544 1362.2781 -132.474)" class="st6" cx="705.9" cy="188.6" rx="11.4" ry="1.6"/>
			</g>
		</g>
	</g>
	<g>
		<g>
			<g>
				
					<ellipse transform="matrix(-0.5274 0.8496 -0.8496 -0.5274 1275.0525 -311.757)" class="st6" cx="724.2" cy="198.7" rx="10.7" ry="1.6"/>
			</g>
		</g>
	</g>
	<g>
		<g>
			<g>
				<path class="st6" d="M745.7,208.9c-0.9,0.2-2.3-2.4-2.5-5.9c-0.2-3.5,0.8-6.3,1.7-6.2c0.9,0.1,1.3,2.8,1.5,6
					C746.6,205.9,746.6,208.6,745.7,208.9z"/>
			</g>
		</g>
	</g>
	<g>
		<g>
			<g>
				<path class="st6" d="M783.2,48.2c-0.4,0.3-1.9-1.2-4.4-3.2c-0.3-0.2-0.7-0.5-1-0.8c-0.4-0.3-0.7-0.5-1.1-0.8
					c-0.8-0.6-1.7-1-2.6-1.6c-1.9-1-4-2-6.3-2.8c-2.3-0.8-4.6-1.3-6.7-1.6c-1.1-0.1-2.1-0.3-3-0.3c-0.5,0-0.9-0.1-1.4-0.1
					c-0.4,0-0.9,0-1.3,0c-3.2,0-5.3,0.3-5.4-0.2c-0.1-0.4,1.8-1.5,5.2-2.1c0.4-0.1,0.9-0.1,1.4-0.2c0.5-0.1,1-0.1,1.5-0.1
					c1-0.1,2.1,0,3.3,0c2.3,0.2,4.9,0.6,7.4,1.5c2.5,0.9,4.8,2.1,6.8,3.3c1,0.7,1.9,1.3,2.6,2c0.4,0.3,0.8,0.7,1.1,1
					c0.3,0.3,0.6,0.7,1,1C782.7,46,783.5,48,783.2,48.2z"/>
			</g>
		</g>
	</g>
	<g>
		<g>
			<g>
				<path class="st6" d="M797,46.6c-0.8,0.4-3.1-2.6-6.6-5.6c-3.4-3-6.7-4.9-6.4-5.8c0.2-0.4,1.3-0.5,2.9,0c1.6,0.5,3.7,1.6,5.7,3.3
					c2,1.7,3.3,3.7,4,5.2C797.3,45.3,797.4,46.4,797,46.6z"/>
			</g>
		</g>
	</g>
	<g>
		<g>
			<g>
				<path class="st6" d="M841.9,66.5c0.8,0.4-0.9,4.6-4.4,8.8c-3.5,4.1-7.4,6.4-8,5.7c-0.6-0.7,2.2-3.9,5.5-7.8
					C838.3,69.3,841.1,66.1,841.9,66.5z"/>
			</g>
		</g>
	</g>
	<g>
		<g>
			<g>
				
					<ellipse transform="matrix(0.8652 -0.5015 0.5015 0.8652 73.2384 438.6682)" class="st6" cx="852.4" cy="83.1" rx="12" ry="1.6"/>
			</g>
		</g>
	</g>
	<g>
		<g>
			<g>
				<path class="st6" d="M883.6,105.8c0.1,0.9-6.5,2.2-14.5,3.6c-8.1,1.4-14.6,2.5-14.9,1.6c-0.2-0.8,6.1-3.4,14.3-4.8
					C876.8,104.7,883.6,104.9,883.6,105.8z"/>
			</g>
		</g>
	</g>
	<path class="st7" d="M1325.2,326.4c-46.7-2.5-84.6-2.6-110.1-2.4c-51.8,0.5-76.2,3.1-118.5,0c-36.3-2.7-65.4-8-83.8-12
		c-6.8,4-15.3,3.5-21.5-1.2c-6.3-4.7-9.1-12.8-7.2-20.4c0.7-25,0.8-51.4,0-79c-0.8-29-2.5-56.5-4.8-82.6c-5.9-8.7-4.8-20.4,2.5-27.5
		c7.7-7.5,20-8.1,28.6-1.2c7.5,0,20.7,0.1,37.1,0c116.3-0.4,174.5-0.5,186.8-2.4c12.5-1.9,38.7-6.4,71.8,0
		c11.5,2.2,20.6,5.2,26.3,7.2c-0.1,28.2-0.4,56.9-1.2,86.2c-1,39.3-2.6,77.6-4.8,114.9C1326,312.8,1325.6,319.6,1325.2,326.4z"/>
	<path class="st3" d="M1002.9,142.6c5.8-3.2,12.8-2.5,17.1,1.4c6.1,5.6,5.4,16.5-0.5,21.2c-2.9,2.3-7.5,3.4-11.1,1.8
		C1002.2,164.4,998.7,154.2,1002.9,142.6z"/>
	<g>
		<g>
			<g>
				<path class="st5" d="M972.6,320.7c-0.8,0-0.6-12.4-1.2-32.4c-0.1-2.5-0.2-5.1-0.3-7.8c-0.1-2.7-0.3-5.6-0.4-8.5
					c-0.2-5.9-0.6-12.1-1-18.7c-0.8-13.2-1.8-27.7-2.8-42.9c-1-15.2-1.8-29.8-2.3-43.1c-0.2-6.6-0.4-12.9-0.4-18.8
					c0-3-0.1-5.8,0-8.5c0-2.7,0.1-5.4,0.1-7.9c0-5,0.3-9.6,0.5-13.5c0.1-2,0.2-3.8,0.3-5.5c0.2-1.7,0.3-3.3,0.4-4.7
					c0.6-5.6,1-8.7,1.4-8.6c0.8,0,0.4,12.4,0.9,32.4c0.1,2.5,0.1,5.1,0.2,7.8c0.1,2.7,0.2,5.6,0.3,8.5c0.2,5.9,0.6,12.1,0.9,18.7
					c0.7,13.2,1.7,27.7,2.7,42.9c1,15.2,1.9,29.8,2.4,43c0.2,6.6,0.5,12.9,0.5,18.8c0,3,0.1,5.8,0.1,8.5c0,2.7,0,5.4-0.1,7.9
					c0,5-0.2,9.6-0.4,13.5c-0.1,2-0.2,3.8-0.3,5.6c-0.1,1.7-0.3,3.3-0.4,4.7C973.3,317.6,972.9,320.7,972.6,320.7z"/>
			</g>
		</g>
	</g>
	<g>
		<g>
			<g>
				<path class="st6" d="M1333.9,99.3c0,0.1-1.2,0.3-3.6,0.5c-2.4,0.1-5.9,0.2-10.4-0.2c-4.5-0.4-10-1.2-16.3-2.3
					c-6.3-1.1-13.5-2.6-21.4-3.6c-7.9-1-16.7-1.2-26.2-1c-4.7,0.1-9.6,0.2-14.7,0.3c-5,0.1-10.2,0.3-15.6,0.4
					c-21.3,0.5-44.8,1.1-69.4,1.7c-49.2,1.1-93.7,1.9-126,2.3c-16.1,0.2-29.2,0.3-38.2,0.3c-4.5,0-8,0-10.4-0.1
					c-2.4-0.1-3.6-0.1-3.6-0.2c0-0.1,1.2-0.2,3.6-0.4c2.4-0.2,5.9-0.3,10.4-0.5c9-0.4,22.1-0.9,38.2-1.4c32.2-1,76.8-2.2,126-3.3
					c24.6-0.5,48-1,69.4-1.4c5.3-0.1,10.5-0.2,15.6-0.3c5.1-0.1,9.9-0.2,14.7-0.2c9.5,0,18.4,0.3,26.5,1.4c8.1,1.1,15.2,2.8,21.4,4
					c6.3,1.3,11.7,2.3,16.1,2.8C1328.9,99.4,1333.9,99,1333.9,99.3z"/>
			</g>
		</g>
	</g>
	<g>
		<g>
			<g>
				
					<ellipse transform="matrix(-4.661015e-003 1 -1 -4.661015e-003 1551.4946 -1120.8414)" class="st6" cx="1333.6" cy="211.7" rx="104.2" ry="1.6"/>
			</g>
		</g>
	</g>
	<g>
		<g>
			<g>
				<path class="st6" d="M1327.5,322.9c0,0.1-1.2,0.3-3.4,0.6c-2.3,0.3-5.6,0.6-9.9,1c-8.6,0.7-21.1,1.5-36.6,1.8
					c-15.5,0.3-33.9,0.3-54.3-0.3c-20.4-0.5-42.9-1.3-66.4-2.2c-11.8-0.4-23.3-0.8-34.4-1.6c-11.1-0.7-21.8-1.9-32-3
					c-20.3-2.4-38.5-4.3-53.9-5.6c-15.4-1.3-27.9-2.1-36.5-2.7c-4.3-0.3-7.7-0.5-9.9-0.7c-2.3-0.2-3.5-0.3-3.5-0.5
					c0-0.1,1.2-0.2,3.5-0.2c2.3,0,5.6,0,10,0.1c8.6,0.2,21.2,0.7,36.6,1.7c15.4,1,33.8,2.6,54.1,4.9c10.2,1.1,20.8,2.2,31.8,2.8
					c11.1,0.7,22.6,1.1,34.3,1.5c23.6,0.9,46,1.7,66.4,2.4c20.4,0.7,38.8,1,54.2,1c15.4,0,27.9-0.4,36.5-0.8
					c4.3-0.2,7.7-0.3,9.9-0.4C1326.3,322.8,1327.5,322.8,1327.5,322.9z"/>
			</g>
		</g>
	</g>
	<g>
		<g>
			<g>
				<path class="st6" d="M986.6,213.2c-0.4,0-1.3-5-2.2-13.3c-0.9-8.3-1.9-19.7-2.6-32.4c-0.7-12.7-0.9-24.1-0.9-32.4
					c0-8.3,0.3-13.5,0.8-13.5c0.9,0,2,20.5,3.4,45.7C986.5,192.6,987.6,213.1,986.6,213.2z"/>
			</g>
		</g>
	</g>
	<g>
		<g>
			<g>
				<path class="st6" d="M1130,118.1c0,0.5-8.5,0.4-22.1,0.3c-6.8,0-14.9,0-23.9,0c-9,0.1-18.9,0.2-29.3,0.5
					c-10.4,0.3-20.3,0.7-29.3,1.2c-9,0.5-17.1,0.9-23.9,1.3c-13.6,0.8-22,1.4-22.1,0.9c0-0.2,2.1-0.6,5.8-1.2c3.8-0.6,9.3-1.3,16-2
					c6.8-0.7,14.9-1.4,23.9-2.1c9-0.6,18.9-1.1,29.3-1.4c10.4-0.3,20.3-0.4,29.4-0.3c9,0.1,17.2,0.3,24,0.7
					c6.8,0.3,12.3,0.7,16.1,1.1C1128,117.6,1130.1,117.9,1130,118.1z"/>
			</g>
		</g>
	</g>
	<g>
		<g>
			<g>
				<path class="st6" d="M1130.9,210.9c-1-0.1,0.5-20.4,0.3-45.5c-0.1-25.1-1.8-45.4-0.9-45.5c0.4,0,1.4,5,2.3,13.2
					c0.9,8.2,1.7,19.6,1.8,32.2c0.1,12.6-0.6,24-1.4,32.3C1132.3,205.9,1131.3,210.9,1130.9,210.9z"/>
			</g>
		</g>
	</g>
	<g>
		<g>
			<g>
				<path class="st6" d="M1130.7,211c0,0.4-8,1.1-21,1.7c-13,0.6-31,1.3-50.8,1.8c-9.9,0.3-19.4,0.5-28,0.6
					c-8.6,0.1-16.4,0.3-22.9,0c-6.5-0.2-11.8-0.8-15.4-1.4c-3.6-0.6-5.6-1.2-5.5-1.4c0.1-0.5,8,0.8,21,0.6c6.5,0,14.2-0.4,22.8-0.7
					c8.6-0.3,18-0.6,28-0.8c19.8-0.5,37.8-0.8,50.8-0.8C1122.7,210.3,1130.7,210.5,1130.7,211z"/>
			</g>
		</g>
	</g>
	<g>
		<g>
			<g>
				<path class="st6" d="M1070.8,203.1c-0.2-0.2,1-1.2,2.5-3.3c0.8-1,1.6-2.4,2.2-4.1c0.1-0.2,0.2-0.4,0.2-0.6
					c0-0.1,0.1-0.2,0.1-0.3l0.1-0.3c0.1-0.2,0.1-0.5,0.1-0.7c0-0.2,0.1-0.4,0.1-0.7c0-0.1,0-0.3,0-0.3c-0.1,0.1-0.2,0.2-0.3,0.2
					c-0.2,0.1-0.3,0.2-0.5,0.2c-0.1,0-0.2,0.1-0.3,0.1l-0.1,0l0,0c0,0,0,0-0.1,0l0,0c-0.2,0-0.4,0-0.6,0c-0.8,0-1.6-0.2-2.2-0.6
					c-0.3-0.2-0.6-0.5-0.8-0.8c-0.2-0.3-0.3-0.7-0.4-1.1c-0.1-0.6-0.1-1.1,0.1-1.7c0.2-0.6,0.5-1.2,0.7-1.5c0.4-0.6,0.8-1.2,1.2-1.9
					c0.8-1.3,1.7-2.5,2.6-3.9c1.6-2.4,3.3-4.9,5.1-7.5c0.2-0.2,0.3-0.4,0.5-0.7l-0.4,0l-0.1,0l0.8-0.1c0.5-0.1,0.1,0,0,0l-0.4,0
					c-2.2,0.2-4.4,0.4-6.5,0.6c1-1.6,1.9-3.2,2.8-4.7c0.7-1.1,1.3-2.2,2-3.2c1-1.7,2-3.3,3-4.8c1.9-3.1,3.6-5.7,5.1-8
					c2.9-4.4,4.8-7,5.2-6.8c0.3,0.2-1,3.1-3.4,7.8c-1.2,2.4-2.7,5.2-4.5,8.3c-0.9,1.6-1.8,3.2-2.8,5c-0.2,0.4-0.5,0.9-0.7,1.3
					l-0.3,0.5l-0.1,0.2c-0.1,0.2-0.2,0.5-0.4,0.7l0.5-0.1l0.1,0l0,0l0,0l-0.2,0l-0.7,0.1l-0.2,0l-0.1,0l0,0l0.1,0l0.9-0.1
					c2.3-0.2,4.6-0.4,7-0.7c-1.1,1.6-2.3,3.3-3.4,5c-2.1,3.1-4.2,6-6.1,8.9c-0.9,1.3-1.8,2.6-2.7,3.8c-0.4,0.6-0.9,1.2-1.3,1.8
					c-0.2,0.3-0.2,0.3-0.3,0.4c0,0.1-0.1,0.2-0.1,0.3c0,0.4,0.4,0.6,0.7,0.6c0.1,0,0.1,0,0.1,0l0.1,0c-0.1,0,0,0,0,0l0.2,0
					c0.1,0,0.2-0.1,0.3-0.1c0.2-0.1,0.4-0.1,0.6-0.2l0.6-0.3c0.9-0.5,1.8-1,2.8-1.6c0.4,1.9-1,6.9-1.8,8c-0.9,1.8-2,3.2-3,4.2
					C1072.4,202.8,1070.9,203.3,1070.8,203.1z"/>
			</g>
		</g>
	</g>
	<g>
		<g>
			<g>
				<path class="st6" d="M1117.5,197.6c-0.3,0.1-1.2-1.2-2.9-3.5c-1.7-2.3-4.1-5.5-7.4-9l-1.7-1.7l2.5-0.6c0.4-0.1,0.8-0.2,1.3-0.3
					c-0.1-0.1-0.1-0.3-0.2-0.4l-0.1-0.2l0-0.1l-0.1-0.4c-0.4-0.9-0.8-1.9-1.2-2.9c-0.8-2-1.6-4-2.5-6.1l-1-2.6l2.8,0.4
					c0.1,0,0.2,0,0.3,0l0.1,0l0,0l0.1,0c0.3,0,0.6-0.1,0.7-0.3l-0.2-0.3c-0.2-0.3-0.4-0.5-0.6-0.8c-1.3-1.7-2.5-3.4-3.7-5
					c-2.3-3.2-4.4-6.1-6.2-8.6c-3.5-4.9-5.5-8-5.2-8.3c0.3-0.3,3,2.3,7,6.9c2,2.3,4.3,5,6.7,8.2c1.2,1.6,2.5,3.2,3.8,4.9l0.5,0.7
					c0.3,0.4,0.6,0.8,0.8,1.1c0.4,0.7,0.8,1.5,1.2,2.2c-0.8,1.2-2.5,2.3-4.5,2.5c-0.1,0-0.3,0-0.4,0l-0.2,0l-0.2,0
					c-0.2,0-0.4,0-0.7-0.1l1.8-2.2c0.8,2.1,1.6,4.2,2.4,6.1c1,2.6,1.9,5,2.8,7.4c-1.7,0.3-3.3,0.6-4.9,0.8l0.8-2.3
					c3.3,3.8,5.5,7.4,6.8,10C1117.3,195.8,1117.8,197.4,1117.5,197.6z"/>
			</g>
		</g>
	</g>
	<g>
		<g>
			<g>
				<path class="st6" d="M1110.8,200.7c0.2,0.4-1.6,1.8-4.9,3.2c-1.7,0.7-3.7,1.4-6,2c-2.3,0.6-4.9,1-7.7,1.2
					c-2.8,0.2-5.4,0-7.8-0.2c-2.4-0.3-4.5-0.7-6.2-1.3c-3.5-1-5.4-2.2-5.3-2.6c0.3-0.9,8.6,1.6,19.1,0.9
					C1102.4,203.3,1110.4,199.8,1110.8,200.7z"/>
			</g>
		</g>
	</g>
	<g>
		<g>
			<g>
				
					<ellipse transform="matrix(0.1567 0.9876 -0.9876 0.1567 1125.811 -898.2015)" class="st6" cx="1088.9" cy="210.2" rx="3.2" ry="1.6"/>
			</g>
		</g>
	</g>
	<g>
		<g>
			<g>
				<ellipse class="st6" cx="1099.5" cy="208.6" rx="1.6" ry="2.4"/>
			</g>
		</g>
	</g>
	<g>
		<g>
			<g>
				<path class="st6" d="M1003,166.3c0.2-0.2,1.2,0.5,3.1,1.2c1,0.4,2.2,0.7,3.6,0.9c1.4,0.1,3.1,0,4.6-0.6c3.2-1.3,5.6-5.2,6.4-10
					c0.4-2.3,0.4-4.9,0-7.4c-0.3-1.3-0.6-2.5-1.2-3.7c-0.6-1.2-1.2-2.3-2.1-3.2c-0.9-1-1.9-1.7-3-2.2c-1.1-0.5-2.3-0.8-3.5-0.8
					c-2.4,0-4.7,0.9-6.6,2.3c-0.9,0.7-1.7,1.5-2.4,2.3c-0.7,0.9-1.2,1.8-1.6,2.7c-0.8,1.9-1.1,3.9-1.1,5.7c0,3.7,1.1,6.6,1.9,8.5
					c0.9,1.9,1.5,3,1.3,3.1c-0.2,0.1-1.1-0.7-2.4-2.5c-1.2-1.9-2.8-4.9-3.1-9c-0.2-2.1,0.1-4.4,0.9-6.8c0.4-1.2,1.1-2.3,1.9-3.4
					c0.8-1.1,1.8-2.1,2.9-3c2.2-1.7,5.1-3,8.4-3.1c3.2-0.1,6.6,1.4,8.9,3.9c1.1,1.2,2,2.7,2.7,4.1c0.6,1.5,1.1,3,1.3,4.4
					c0.5,3,0.4,5.9-0.2,8.6c-0.6,2.7-1.6,5.1-3,7.2c-1.4,2.1-3.4,3.6-5.5,4.3c-2.1,0.7-4.1,0.6-5.7,0.3c-1.6-0.4-2.9-0.9-3.9-1.5
					C1003.7,167.4,1002.9,166.4,1003,166.3z"/>
			</g>
		</g>
	</g>
	<g>
		<g>
			<g>
				<path class="st6" d="M1061.5,205.7c-0.3,0.8-17.3-5.4-37.9-13.9c-5.2-2.1-9.9-4.2-14.5-4.9c-4.5-0.6-8.7,0.2-11.9,1.4
					c-3.3,1.3-5.6,2.9-7.2,4.2c-1.6,1.3-2.4,2-2.6,1.9c-0.2-0.1,0.3-1.2,1.7-2.8c1.4-1.6,3.7-3.7,7.1-5.4c3.4-1.7,8-2.9,13.2-2.3
					c5.1,0.5,10.2,2.7,15.3,4.8C1045.4,197.3,1061.9,204.9,1061.5,205.7z"/>
			</g>
		</g>
	</g>
	<g>
		<g>
			<g>
				<path class="st6" d="M1075.1,185.1c0,0.9-9.6,1.1-20.7,4.7c-2.8,0.9-5.3,1.9-7.7,2.8c-2.4,1-4.6,1.8-6.6,2.2
					c-2,0.5-3.7,0.5-4.8,0.4c-1.1-0.1-1.7-0.4-1.7-0.6c0-0.5,2.4-0.5,5.9-1.9c1.7-0.7,3.8-1.7,6.1-2.8c2.3-1.1,5-2.3,7.9-3.2
					c5.8-1.9,11.3-2.5,15.3-2.5C1072.7,184.1,1075.1,184.7,1075.1,185.1z"/>
			</g>
		</g>
	</g>
	<g>
		<g>
			<g>
				
					<ellipse transform="matrix(1 -2.524805e-003 2.524805e-003 1 -0.3664 3.1111)" class="st6" cx="1232" cy="146.7" rx="77.6" ry="1.6"/>
			</g>
		</g>
	</g>
	<g>
		<g>
			<g>
				<path class="st6" d="M1176.4,163.7c-0.1,0.9-5,1-11,0.8c-6-0.1-10.9-0.4-11-1.3c-0.1-0.9,4.8-2.1,11-1.9
					C1171.6,161.4,1176.5,162.8,1176.4,163.7z"/>
			</g>
		</g>
	</g>
	<g>
		<g>
			<g>
				<path class="st6" d="M1156.8,124.5c0,0-0.1-0.1-0.1-0.1c0-0.1,0-0.2,0.2-0.3c0.2-0.1,0.5,0,0.6,0.2c0.1,0.1,0.2,0.3,0.3,0.4
					c0.1,0.2,0.1,0.4,0,0.8c-0.1,0.2-0.2,0.4-0.6,0.5c-0.1,0-0.1,0-0.1,0l0,0l-0.2,0l-0.1,0c-0.4,0-0.7-0.2-1-0.5
					c-0.3-0.2-0.4-0.5-0.5-0.7c-0.1-0.2-0.2-0.5-0.3-0.7c-0.1-0.2-0.1-0.4-0.2-0.6c-0.1-0.4-0.2-0.8-0.3-1.3c-0.2-0.9-0.4-1.9-0.5-3
					c-0.6-4.2-0.3-7.7,0.6-7.9c0.9-0.1,2.1,3.2,2.6,7.4c0.1,1.1,0.2,2.1,0.3,3c0,0.5,0,0.9,0,1.3c0,0.2,0,0.4,0,0.6
					c0,0.1,0,0.2,0,0.3c0,0,0,0.1,0,0.1c0,0,0,0-0.1,0.1C1156.9,124.5,1156.9,124.6,1156.8,124.5L1156.8,124.5L1156.8,124.5
					L1156.8,124.5c-0.1,0.6,0.1,0.2,0,0.3l0,0l0,0l0,0c0,0,0.1,0.1,0.1,0.1c0,0,0,0-0.1,0c-0.1-0.1-0.4-0.1-0.3-0.1
					c0.1,0,0,0,0.2-0.1c0.2-0.1,0.2-0.2,0.2-0.2C1157.1,124.7,1156.9,124.5,1156.8,124.5z"/>
			</g>
		</g>
	</g>
	<g>
		<g>
			<g>
				<path class="st6" d="M1296.5,119.8c-0.2,0-0.5-1.1-1.1-3.2c-0.3-1.1-0.6-2.4-0.9-3.9c-0.2-0.8-0.4-1.6-0.6-2.5
					c-0.1-0.4-0.2-0.8-0.3-1.2c-0.1-0.3-0.1-0.5-0.2-0.8c-0.2,0-0.5,0.1-0.8,0.1c-0.4,0-0.7,0.1-1.1,0.1c-0.9,0.1-1.9,0.1-2.9,0.2
					c-2,0.1-4.1,0.3-6.4,0.4c-4.5,0.3-9.5,0.6-15,0.8c-10.9,0.5-23.3,1-36.6,1.3c-21.1,0.5-40.1,0.4-53.9,0.1
					c-6.9-0.1-12.5-0.4-16.3-0.6c-3.9-0.2-6-0.5-6-0.7c0-0.5,8.5-0.8,22.3-1c13.8-0.3,32.8-0.6,53.9-1.1c26.8-0.7,50.5-1.2,64.3-1.6
					c0.2,1.3,0.4,2.5,0.6,3.6c0.1,0.9,0.2,1.7,0.4,2.5c0.2,1.6,0.4,2.9,0.5,4C1296.6,118.6,1296.7,119.8,1296.5,119.8z"/>
			</g>
		</g>
	</g>
	<g>
		<g>
			<g>
				<path class="st6" d="M1291.6,121.7c0,0.4-7.5,1.2-19.6,1.9c-12.1,0.7-28.9,1.4-47.4,1.8c-18.5,0.4-35.3,0.3-47.4,0.1
					c-12.1-0.2-19.6-0.7-19.6-1.1c0-0.5,7.5-0.8,19.6-1.2c12.1-0.4,28.9-0.7,47.4-1.1c18.5-0.4,35.2-0.7,47.4-0.8
					C1284.1,121.2,1291.6,121.3,1291.6,121.7z"/>
			</g>
		</g>
	</g>
	<g>
		<g>
			<g>
				
					<ellipse transform="matrix(1 -1.137657e-003 1.137657e-003 1 -0.1988 1.3955)" class="st6" cx="1226.6" cy="175.5" rx="81.5" ry="1.6"/>
			</g>
		</g>
	</g>
	<g>
		<g>
			<g>
				<path class="st6" d="M1308.1,162.2c0,0.5-5.8,0.9-15.2,1.3c-9.4,0.4-22.4,0.7-36.8,0.9c-14.4,0.2-27.4,0.1-36.8-0.1
					c-2.3-0.1-4.5-0.1-6.4-0.2c-1.9-0.2-3.6-0.5-4.9-0.9c-2.6-0.9-3.7-2-3.6-2.2c0.1-0.2,1.4,0.5,3.9,0.9c1.2,0.2,2.8,0.3,4.6,0.3
					c1.8,0,3.9-0.2,6.3-0.2c9.4-0.4,22.4-0.7,36.8-0.9c14.4-0.2,27.4-0.1,36.8,0.1C1302.2,161.4,1308.1,161.7,1308.1,162.2z"/>
			</g>
		</g>
	</g>
	<g>
		<g>
			<g>
				<path class="st6" d="M1314.4,192.9c0,0.2-2.4,0.6-6.7,1c-4.3,0.5-10.6,1-18.3,1.5c-15.4,1-36.8,1.8-60.5,1.9
					c-23.6,0-45-0.7-60.5-1.6c-7.7-0.5-14-0.9-18.3-1.4c-4.3-0.4-6.7-0.8-6.7-1c0-0.2,2.4-0.3,6.7-0.3c4.3,0,10.6,0.2,18.3,0.3
					c15.5,0.3,36.8,0.7,60.4,0.7c23.6-0.1,44.9-0.5,60.4-1c7.7-0.2,14-0.4,18.3-0.4C1312,192.6,1314.4,192.7,1314.4,192.9z"/>
			</g>
		</g>
	</g>
	<g>
		<g>
			<g>
				<path class="st6" d="M1163,209c0,0.9-4.3,1.6-9.6,1c-5.3-0.6-9.4-2.2-9.2-3c0.2-0.9,4.4-0.8,9.5-0.2
					C1158.9,207.3,1163,208.1,1163,209z"/>
			</g>
		</g>
	</g>
	<g>
		<g>
			<g>
				
					<ellipse transform="matrix(0.9998 -2.090435e-002 2.090435e-002 0.9998 -4.0874 25.5792)" class="st6" cx="1221.5" cy="208.3" rx="38.8" ry="1.6"/>
			</g>
		</g>
	</g>
	<g>
		<g>
			<g>
				
					<ellipse transform="matrix(0.9984 -5.622726e-002 5.622726e-002 0.9984 -9.473 73.7884)" class="st6" cx="1306.6" cy="205.2" rx="15.7" ry="1.6"/>
			</g>
		</g>
	</g>
	<g>
		<g>
			<g>
				<path class="st6" d="M1302.5,230.9c0,0.1-1.1,0.2-3.2,0.2c-2.1,0-5.2,0-9.2,0.1c-8,0.1-19.5,0.5-33.8,1.3
					c-14.3,0.9-31.3,2.1-50.2,2.8c-18.9,0.8-39.7,1.4-61.5,1.5c-43.7,0.3-83.2-1.2-111.8-3c-14.3-0.9-25.8-1.8-33.8-2.6
					c-4-0.4-7.1-0.7-9.2-1c-2.1-0.3-3.2-0.4-3.2-0.6c0-0.1,1.1-0.1,3.2-0.1c2.1,0,5.2,0.2,9.2,0.4c8,0.4,19.5,0.9,33.8,1.5
					c28.6,1.2,68,2.3,111.6,2c21.8-0.1,42.6-0.6,61.4-1.3c18.9-0.6,35.9-1.5,50.2-2.1c14.3-0.6,25.9-0.6,33.9-0.3
					c4,0.2,7.1,0.4,9.2,0.6C1301.4,230.6,1302.5,230.8,1302.5,230.9z"/>
			</g>
		</g>
	</g>
	<g>
		<g>
			<g>
				<path class="st6" d="M1093.9,249.4c0,0.5-6.1,0.4-15.8,0c-9.7-0.4-23.1-1-37.9-1.6c-14.8-0.6-28.2-1.2-37.9-1.6
					c-9.7-0.5-15.7-0.9-15.7-1.3c0-0.4,6-0.8,15.8-1c9.7-0.1,23.2,0,38,0.6c14.8,0.6,28.3,1.6,37.9,2.6
					C1088,248,1094,248.9,1093.9,249.4z"/>
			</g>
		</g>
	</g>
	<g>
		<g>
			<g>
				<path class="st6" d="M1279.7,270c0,0.2-4,0.4-11.1,0.6c-7.2,0.2-17.5,0.3-30.3,0.3c-25.6,0.1-61-0.2-100-1
					c-39.1-0.9-74.4-2.2-100-3.4c-12.8-0.6-23.1-1.2-30.3-1.7c-7.1-0.5-11.1-0.9-11.1-1.1c0-0.2,4-0.3,11.1-0.2
					c7.2,0.1,17.5,0.3,30.3,0.6c25.6,0.6,60.9,1.5,100,2.4c39,0.8,74.4,1.5,100,2c12.8,0.2,23.2,0.5,30.3,0.7
					C1275.8,269.5,1279.7,269.8,1279.7,270z"/>
			</g>
		</g>
	</g>
	<g>
		<g>
			<g>
				<path class="st6" d="M1308.8,252.4c0,0.2-2.5,0.3-6.9,0.3c-4.4,0-10.8-0.1-18.6-0.2c-15.7-0.3-37.5-0.6-61.5-0.6
					c-24,0-45.7,0.2-61.5,0.4c-7.9,0.1-14.2,0.2-18.6,0.2c-4.4,0-6.8-0.1-6.9-0.3c0-0.2,2.4-0.5,6.8-0.9c4.4-0.4,10.8-0.8,18.6-1.2
					c15.7-0.8,37.5-1.4,61.5-1.4c24,0,45.8,0.7,61.5,1.6c7.9,0.4,14.2,0.8,18.6,1.2C1306.4,251.9,1308.8,252.2,1308.8,252.4z"/>
			</g>
		</g>
	</g>
	<path class="st9" d="M1229,568.1c-57.4-13.2-114.9-26.4-172.3-39.6c-6.2-1.7-12.4-3.4-18.6-5.2c1.7-4.5,3.4-9,5.2-13.5
		c3.4-23.8,6.9-47.6,10.3-71.4c0-0.8-0.4-9.3,6.2-14.5c5.7-4.5,14.2-4.6,20.7,0c31.4,7.9,62.8,15.9,94.2,23.8
		c24.1,3.8,48.3,7.6,72.4,11.4c-1.7,6.9-3.4,13.8-5.2,20.7c-4.1,25.5-8.3,51-12.4,76.6C1229.3,560.3,1229.2,564.2,1229,568.1z"/>
	<path class="st3" d="M1181.1,521.4c-1.2,3.2-3,9-1.9,16.1c0.8,5.4,1.9,7.1,2.6,7.7c1.8,1.8,3.9,2,10.3,2.5c8.4,0.7,12.6,1,13.5,0.7
		c7.3-2.7,12.2-13.8,9-19.3c-1-1.7-2.8-2.8-16.1-5.2C1191.5,522.8,1185.6,522,1181.1,521.4z"/>
	<g>
		<g>
			<g>
				<path class="st6" d="M1038.3,526.6c-0.5-0.1,0.6-6.2,2.1-16.1c0.8-4.9,1.7-10.8,2.6-17.3c0.9-6.5,1.8-13.7,2.6-21.3
					c0.8-7.6,1.4-14.8,1.9-21.3c0.5-6.6,0.8-12.5,1-17.5c0.5-10,0.8-16.1,1.2-16.2c0.4,0,1,6.2,1.1,16.2c0.1,5-0.1,11-0.4,17.6
					c-0.3,6.6-0.8,13.9-1.6,21.5c-0.8,7.6-1.8,14.8-2.9,21.4c-1.1,6.5-2.2,12.4-3.3,17.3C1040.5,520.8,1038.7,526.7,1038.3,526.6z"
					/>
			</g>
		</g>
	</g>
	<g>
		<g>
			<g>
				
					<ellipse transform="matrix(0.9769 0.2136 -0.2136 0.9769 119.8891 -236.7445)" class="st6" cx="1155.8" cy="436.6" rx="106.8" ry="1.6"/>
			</g>
		</g>
	</g>
	<g>
		<g>
			<g>
				<path class="st6" d="M1214.4,568.8c0,0.2-2.5,0-6.9-0.5c-2.2-0.3-4.9-0.6-8.1-1.1c-3.1-0.5-6.7-1-10.6-1.6
					c-7.9-1.3-17.2-2.9-27.6-4.9c-10.3-2-21.7-4.4-33.5-7.2c-11.8-2.8-23.1-5.7-33.2-8.4c-10.2-2.8-19.3-5.4-26.9-7.8
					c-3.8-1.2-7.2-2.3-10.2-3.3c-3-1-5.6-1.9-7.7-2.6c-4.2-1.5-6.5-2.4-6.4-2.6c0.1-0.2,2.5,0.3,6.8,1.4c4.3,1.2,10.5,2.8,18.2,4.9
					c7.7,2.1,16.8,4.5,27,7.1c10.2,2.6,21.4,5.4,33.2,8.2c11.8,2.8,23.1,5.2,33.4,7.4c10.3,2.2,19.6,4.1,27.4,5.6
					c7.8,1.6,14.1,2.8,18.5,3.7C1212,568,1214.4,568.6,1214.4,568.8z"/>
			</g>
		</g>
	</g>
	<g>
		<g>
			<g>
				
					<ellipse transform="matrix(-0.2026 0.9793 -0.9793 -0.2026 2008.7496 -596.1095)" class="st6" cx="1247.1" cy="519.8" rx="53" ry="1.6"/>
			</g>
		</g>
	</g>
	<g>
		<g>
			<g>
				<path class="st6" d="M1118.4,515.7c-0.4,0.2-3.5-5.2-8.6-13.7c-2.5-4.3-5.7-9.3-9.2-14.8c-3.6-5.5-7.6-11.5-12-17.7
					c-4.4-6.2-8.8-11.9-12.8-17.1c-4.1-5.1-7.8-9.7-11-13.5c-6.4-7.6-10.5-12.2-10.2-12.6c0.3-0.3,5,3.8,11.9,11
					c3.5,3.6,7.4,8.1,11.7,13.2c4.2,5.1,8.7,10.9,13.1,17.1c4.4,6.2,8.4,12.3,11.9,18c3.4,5.7,6.4,10.9,8.7,15.3
					C1116.5,509.7,1118.8,515.5,1118.4,515.7z"/>
			</g>
		</g>
	</g>
	<g>
		<g>
			<g>
				<path class="st6" d="M1241.9,468.6c0.1,0.4-6.6,3-17.5,6.9c-10.9,3.9-26,9.3-42.6,15.4c-16.6,6.1-31.6,11.8-42.4,15.9
					c-10.8,4.1-17.6,6.6-17.8,6.1c-0.2-0.4,6.3-3.6,16.9-8.3c10.6-4.7,25.5-10.7,42.2-16.8c16.6-6.1,31.9-11.1,43-14.5
					C1234.7,470,1241.7,468.2,1241.9,468.6z"/>
			</g>
		</g>
	</g>
	<g>
		<g>
			<g>
				<path class="st6" d="M1172,547.1c-0.9,0-1.7-6.1-0.4-13.4c1.3-7.4,4.2-12.8,5-12.5c0.9,0.3-0.5,6-1.8,13
					C1173.6,541.3,1173,547.1,1172,547.1z"/>
			</g>
		</g>
	</g>
	<g>
		<g>
			<g>
				<path class="st6" d="M1220.1,530.6c-0.3,0.9-9.5-1.7-20.8-4.5c-11.3-2.9-20.6-5-20.4-5.9c0.1-0.9,9.7-0.2,21.2,2.7
					C1211.6,525.8,1220.4,529.8,1220.1,530.6z"/>
			</g>
		</g>
	</g>
	<g>
		<g>
			<g>
				<path class="st6" d="M1213.2,549.8c0,0.9-8.9,1-19.6-0.7c-10.7-1.8-19.1-4.8-18.8-5.6c0.2-0.9,8.8,0.7,19.4,2.4
					C1204.7,547.6,1213.3,548.9,1213.2,549.8z"/>
			</g>
		</g>
	</g>
	<g>
		<g>
			<g>
				
					<ellipse transform="matrix(-0.3638 0.9315 -0.9315 -0.3638 2158.5115 -392.3251)" class="st6" cx="1213.2" cy="540.9" rx="11.1" ry="1.6"/>
			</g>
		</g>
	</g>
	<g>
		<g>
			<g>
				<path class="st6" d="M1025.5,532.9c-0.9-0.3,1.5-10.1,3.4-22.4c1.9-12.3,2.6-22.4,3.5-22.4c0.9,0,1.7,10.3-0.3,22.9
					C1030.2,523.6,1026.3,533.2,1025.5,532.9z"/>
			</g>
		</g>
	</g>
	<g>
		<g>
			<g>
				<path class="st6" d="M1016.5,531.1c-0.9-0.4,0.7-5.8,1.9-12.6c1.2-6.8,1.7-12.5,2.6-12.5c0.4,0,0.9,1.4,1.1,3.8
					c0.2,2.4,0.1,5.7-0.5,9.3c-0.6,3.6-1.7,6.7-2.7,8.9C1017.9,530.1,1016.9,531.3,1016.5,531.1z"/>
			</g>
		</g>
	</g>
	<g>
		<g>
			<g>
				<path class="st6" d="M1125.1,415.3c-0.3,0.9-16.5-3.3-36.8-7.2c-20.3-3.9-36.9-6-36.8-7c0.1-0.9,17-0.2,37.4,3.8
					C1109.4,408.8,1125.3,414.5,1125.1,415.3z"/>
			</g>
		</g>
	</g>
	<g>
		<g>
			<g>
				
					<ellipse transform="matrix(0.9624 0.2717 -0.2717 0.9624 152.3177 -288.4709)" class="st6" cx="1117.9" cy="405.8" rx="28" ry="1.6"/>
			</g>
		</g>
	</g>
	<path class="st3" d="M1070.7,756.4c-5.2-10.5-10.5-21-15.7-31.4c2.5-2.5,6.2-5.9,11.4-9c7.6-4.6,11.2-4.2,13.3-8.1
		c1.2-2.2,1.1-4.1-1-16.7c-2.1-13-2.9-16.3-1.9-16.7c1.5-0.6,5.8,5.9,11,13.8c1.4,2.1,2.5,4,3.3,5.2c3.7-1.9,10.6-4.8,19.5-4.8
		c5.1,0,8.6,0.1,11.9,2.4c1.6,1.1,3.6,3.1,8.1,24.3c1.3,6.1,1.6,8,1,10.5c-0.4,1.7-1.9,6.5-10,11.9c-12.5,8.4-27.6,9.5-35.2,9.5
		C1081.1,750.4,1075.9,753.4,1070.7,756.4z"/>
	<g>
		<g>
			<g>
				<path class="st6" d="M1064.3,756.5c-0.9,0.4-5.1-7.4-10.9-16.6c-5.8-9.2-11-16.4-10.3-17c0.6-0.6,7.1,5.8,13,15.2
					C1062.1,747.6,1065.1,756.2,1064.3,756.5z"/>
			</g>
		</g>
	</g>
	<g>
		<g>
			<g>
				<path class="st6" d="M1085.9,747.8c-0.4,0.2-1.9-3-4.6-7.9c-1.3-2.4-2.9-5.3-4.9-8.4c-2-3.1-4.2-6.5-6.9-9.4
					c-2.7-3-5.9-5.2-9.2-5.7c-3.2-0.6-6.3,0.4-8.7,1.5c-2.4,1.1-4.3,2.3-5.7,3.1c-1.4,0.8-2.2,1.2-2.3,1c-0.1-0.2,0.4-0.9,1.5-2
					c1.2-1.1,2.9-2.6,5.4-4.1c1.3-0.7,2.7-1.5,4.5-1.9c1.7-0.5,3.7-0.7,5.8-0.4c2.1,0.2,4.1,1.1,6,2.2c1.9,1.1,3.6,2.6,5.1,4.3
					c1.5,1.6,2.8,3.4,4,5.1c1.1,1.7,2.2,3.4,3.1,5c1.9,3.3,3.3,6.3,4.4,8.9C1085.6,744.2,1086.3,747.7,1085.9,747.8z"/>
			</g>
		</g>
	</g>
	<g>
		<g>
			<g>
				<path class="st6" d="M1085,749.8c0.3,0.4-0.5,1.5-2.3,2.8c-1.7,1.3-4.4,2.8-7.6,3.7c-3.2,0.9-6.2,1.1-8.4,0.9
					c-2.2-0.2-3.4-0.7-3.4-1.2c0.1-0.9,5.1-1.1,10.9-2.9C1080,751.5,1084.4,749,1085,749.8z"/>
			</g>
		</g>
	</g>
	<g>
		<g>
			<g>
				<path class="st6" d="M1079.7,705.2c0.1,0.9-4.1,2-8.9,4c-4.8,1.9-8.5,4.1-9.1,3.4c-0.3-0.3,0.3-1.4,1.7-2.6
					c1.4-1.3,3.5-2.7,6.2-3.8c2.6-1.1,5.2-1.6,7-1.6C1078.5,704.5,1079.6,704.8,1079.7,705.2z"/>
			</g>
		</g>
	</g>
	<g>
		<g>
			<g>
				<path class="st6" d="M1074.1,672.6c0.9,0.3-0.6,6.5-0.2,14.2c0.4,7.7,2.6,13.7,1.7,14.1c-0.4,0.2-1.5-1.1-2.6-3.6
					c-1.1-2.5-2.1-6.2-2.4-10.3c-0.2-4.2,0.4-7.9,1.2-10.5C1072.7,673.9,1073.7,672.5,1074.1,672.6z"/>
			</g>
		</g>
	</g>
	<g>
		<g>
			<g>
				<path class="st6" d="M1092.2,698.4c-0.9,0.3-3.4-5.9-7.9-12.4c-4.5-6.6-9.3-11.2-8.7-11.9c0.3-0.3,1.9,0.4,4.1,2.1
					c2.2,1.7,4.9,4.5,7.3,8c2.4,3.5,4,7.1,4.8,9.7C1092.5,696.5,1092.6,698.2,1092.2,698.4z"/>
			</g>
		</g>
	</g>
	<g>
		<g>
			<g>
				<path class="st6" d="M1125.7,688.1c-0.2,0.1-0.6-0.3-1.3-0.5c-0.7-0.2-1.9-0.2-3.4,0.1c-3.2,0.8-7.8,1.7-12.9,2.5
					c-2.5,0.4-5,0.7-7.1,1.1c-2.1,0.4-4,0.8-5.4,1.4c-3,1.1-4.5,2.5-4.9,2.1c-0.2-0.1,0-0.7,0.6-1.5c0.6-0.8,1.7-1.8,3.2-2.7
					c1.6-0.9,3.6-1.7,5.8-2.2c2.2-0.6,4.7-1,7.2-1.4c5.1-0.8,9.6-1.4,13.1-1.6c1.8-0.1,3.5,0.3,4.4,1.1c0.4,0.4,0.7,0.8,0.7,1.1
					C1125.9,687.9,1125.8,688.1,1125.7,688.1z"/>
			</g>
		</g>
	</g>
	<g>
		<g>
			<g>
				<path class="st6" d="M1132.5,731.4c-0.4-0.2,0.5-2.5,1.1-6.2c0.6-3.7,0.5-9-1-14.6c-1.5-5.6-3.9-10.4-5.6-13.9
					c-1.7-3.5-2.7-5.8-2.4-6c0.4-0.2,2.1,1.6,4.3,4.8c2.2,3.3,5.1,8.2,6.8,14.2c1.7,6.1,1.4,12,0.1,15.9
					C1134.6,729.7,1132.8,731.6,1132.5,731.4z"/>
			</g>
		</g>
	</g>
	<g>
		<g>
			<g>
				<path class="st6" d="M1128.4,732.4c0.3,0.3-1.1,2.3-4.1,4.9c-1.5,1.3-3.3,2.7-5.5,4.1c-2.2,1.4-4.7,2.7-7.5,3.9
					c-2.8,1.2-5.5,2-8,2.7c-2.5,0.6-4.8,1-6.8,1.2c-3.9,0.3-6.3,0-6.3-0.4c-0.1-1,9.4-1.9,19.9-6.4
					C1120.6,737.9,1127.7,731.7,1128.4,732.4z"/>
			</g>
		</g>
	</g>
	<g>
		<g>
			<g>
				
					<ellipse transform="matrix(0.5393 0.8421 -0.8421 0.5393 1056.0256 -561.9435)" class="st6" cx="1041.6" cy="684.2" rx="7.3" ry="1.6"/>
			</g>
		</g>
	</g>
	<g>
		<g>
			<g>
				<ellipse class="st6" cx="1053" cy="689.1" rx="1.6" ry="4.6"/>
			</g>
		</g>
	</g>
</g>
</svg>
